%TF.GenerationSoftware,KiCad,Pcbnew,7.0.2*%
%TF.CreationDate,2023-06-06T14:02:04-04:00*%
%TF.ProjectId,Goufi_v1,476f7566-695f-4763-912e-6b696361645f,rev?*%
%TF.SameCoordinates,Original*%
%TF.FileFunction,Legend,Top*%
%TF.FilePolarity,Positive*%
%FSLAX46Y46*%
G04 Gerber Fmt 4.6, Leading zero omitted, Abs format (unit mm)*
G04 Created by KiCad (PCBNEW 7.0.2) date 2023-06-06 14:02:04*
%MOMM*%
%LPD*%
G01*
G04 APERTURE LIST*
%ADD10C,0.400000*%
G04 APERTURE END LIST*
D10*
G36*
X112017207Y-50815478D02*
G01*
X112039189Y-51315687D01*
X111929280Y-51315687D01*
X111918376Y-51285733D01*
X111907282Y-51256931D01*
X111895998Y-51229282D01*
X111884522Y-51202786D01*
X111872856Y-51177442D01*
X111860998Y-51153250D01*
X111848950Y-51130211D01*
X111836712Y-51108325D01*
X111824282Y-51087591D01*
X111811661Y-51068009D01*
X111798850Y-51049580D01*
X111785848Y-51032304D01*
X111772655Y-51016180D01*
X111759271Y-51001209D01*
X111738838Y-50980913D01*
X111731931Y-50974724D01*
X111710828Y-50957439D01*
X111688918Y-50941854D01*
X111666200Y-50927969D01*
X111642676Y-50915785D01*
X111618344Y-50905301D01*
X111593205Y-50896517D01*
X111567259Y-50889433D01*
X111540506Y-50884049D01*
X111512946Y-50880365D01*
X111484578Y-50878382D01*
X111465218Y-50878004D01*
X111440626Y-50878742D01*
X111416858Y-50880957D01*
X111393914Y-50884650D01*
X111371795Y-50889819D01*
X111350500Y-50896465D01*
X111330030Y-50904588D01*
X111310383Y-50914188D01*
X111291561Y-50925265D01*
X111273564Y-50937818D01*
X111256390Y-50951849D01*
X111245400Y-50962023D01*
X111229948Y-50978004D01*
X111216016Y-50994441D01*
X111203604Y-51011332D01*
X111192712Y-51028679D01*
X111183339Y-51046480D01*
X111175487Y-51064737D01*
X111169154Y-51083449D01*
X111164341Y-51102616D01*
X111161048Y-51122237D01*
X111159275Y-51142315D01*
X111158938Y-51155952D01*
X111159732Y-51180759D01*
X111162115Y-51204072D01*
X111166086Y-51225890D01*
X111171646Y-51246215D01*
X111178794Y-51265046D01*
X111190797Y-51287829D01*
X111205623Y-51307956D01*
X111223273Y-51325427D01*
X111243748Y-51340242D01*
X111249307Y-51343531D01*
X111267490Y-51353193D01*
X111287965Y-51363131D01*
X111310732Y-51373343D01*
X111335792Y-51383831D01*
X111363145Y-51394593D01*
X111382654Y-51401920D01*
X111403182Y-51409369D01*
X111424729Y-51416941D01*
X111447294Y-51424634D01*
X111470879Y-51432450D01*
X111495483Y-51440388D01*
X111521105Y-51448448D01*
X111547747Y-51456630D01*
X111561450Y-51460767D01*
X111582420Y-51467306D01*
X111602956Y-51473918D01*
X111623056Y-51480602D01*
X111642722Y-51487359D01*
X111661952Y-51494188D01*
X111680747Y-51501090D01*
X111699107Y-51508064D01*
X111734523Y-51522230D01*
X111768198Y-51536687D01*
X111800132Y-51551433D01*
X111830327Y-51566469D01*
X111858781Y-51581795D01*
X111885495Y-51597411D01*
X111910469Y-51613318D01*
X111933703Y-51629514D01*
X111955196Y-51646001D01*
X111974949Y-51662777D01*
X111992962Y-51679843D01*
X112009235Y-51697200D01*
X112016718Y-51705987D01*
X112030797Y-51723931D01*
X112043967Y-51742471D01*
X112056229Y-51761606D01*
X112067582Y-51781336D01*
X112078027Y-51801661D01*
X112087564Y-51822582D01*
X112096193Y-51844099D01*
X112103913Y-51866210D01*
X112110725Y-51888917D01*
X112116629Y-51912219D01*
X112121625Y-51936117D01*
X112125712Y-51960610D01*
X112128891Y-51985698D01*
X112131162Y-52011382D01*
X112132524Y-52037661D01*
X112132978Y-52064535D01*
X112132379Y-52096197D01*
X112130581Y-52127313D01*
X112127586Y-52157884D01*
X112123392Y-52187909D01*
X112117999Y-52217388D01*
X112111408Y-52246321D01*
X112103619Y-52274708D01*
X112094632Y-52302550D01*
X112084446Y-52329846D01*
X112073062Y-52356596D01*
X112060480Y-52382801D01*
X112046699Y-52408460D01*
X112031720Y-52433573D01*
X112015543Y-52458140D01*
X111998167Y-52482162D01*
X111979594Y-52505638D01*
X111959999Y-52528116D01*
X111939439Y-52549144D01*
X111917913Y-52568721D01*
X111895421Y-52586849D01*
X111871965Y-52603526D01*
X111847542Y-52618753D01*
X111822154Y-52632530D01*
X111795801Y-52644856D01*
X111768482Y-52655733D01*
X111740197Y-52665159D01*
X111710947Y-52673135D01*
X111680732Y-52679661D01*
X111649551Y-52684737D01*
X111617404Y-52688362D01*
X111584292Y-52690537D01*
X111550215Y-52691263D01*
X111525817Y-52690761D01*
X111501717Y-52689255D01*
X111477915Y-52686746D01*
X111454410Y-52683233D01*
X111431203Y-52678717D01*
X111408294Y-52673196D01*
X111385683Y-52666672D01*
X111363369Y-52659145D01*
X111341353Y-52650613D01*
X111319634Y-52641078D01*
X111298213Y-52630540D01*
X111277090Y-52618997D01*
X111256265Y-52606451D01*
X111235737Y-52592901D01*
X111215507Y-52578348D01*
X111195574Y-52562791D01*
X111176630Y-52579224D01*
X111158144Y-52595550D01*
X111140116Y-52611769D01*
X111122545Y-52627882D01*
X111105433Y-52643887D01*
X111088779Y-52659786D01*
X111072582Y-52675578D01*
X111056844Y-52691263D01*
X110965009Y-52691263D01*
X110965009Y-52128527D01*
X111071987Y-52128527D01*
X111079781Y-52157378D01*
X111088019Y-52185314D01*
X111096702Y-52212333D01*
X111105830Y-52238436D01*
X111115402Y-52263624D01*
X111125419Y-52287896D01*
X111135881Y-52311251D01*
X111146787Y-52333691D01*
X111158137Y-52355215D01*
X111169932Y-52375823D01*
X111182172Y-52395515D01*
X111194857Y-52414291D01*
X111207986Y-52432151D01*
X111221559Y-52449096D01*
X111235577Y-52465124D01*
X111250040Y-52480237D01*
X111264948Y-52494433D01*
X111280300Y-52507714D01*
X111296096Y-52520079D01*
X111312337Y-52531528D01*
X111329023Y-52542061D01*
X111346154Y-52551678D01*
X111363729Y-52560379D01*
X111381748Y-52568164D01*
X111400212Y-52575034D01*
X111419121Y-52580987D01*
X111438474Y-52586024D01*
X111458272Y-52590146D01*
X111478515Y-52593352D01*
X111499202Y-52595642D01*
X111520334Y-52597015D01*
X111541910Y-52597473D01*
X111564596Y-52597050D01*
X111586614Y-52595779D01*
X111607965Y-52593661D01*
X111628647Y-52590696D01*
X111648662Y-52586883D01*
X111668008Y-52582223D01*
X111695776Y-52573645D01*
X111722041Y-52563161D01*
X111746804Y-52550770D01*
X111770064Y-52536474D01*
X111791821Y-52520271D01*
X111812075Y-52502161D01*
X111824744Y-52489030D01*
X111842465Y-52468377D01*
X111858443Y-52447270D01*
X111872679Y-52425707D01*
X111885171Y-52403690D01*
X111895920Y-52381217D01*
X111904926Y-52358289D01*
X111912189Y-52334906D01*
X111917709Y-52311068D01*
X111921485Y-52286775D01*
X111923519Y-52262027D01*
X111923906Y-52245275D01*
X111922845Y-52221984D01*
X111919661Y-52199432D01*
X111914354Y-52177619D01*
X111906924Y-52156546D01*
X111897371Y-52136213D01*
X111885696Y-52116618D01*
X111880431Y-52108988D01*
X111866640Y-52090667D01*
X111852133Y-52073563D01*
X111836911Y-52057675D01*
X111820973Y-52043004D01*
X111804320Y-52029549D01*
X111786951Y-52017311D01*
X111779803Y-52012756D01*
X111762210Y-52003124D01*
X111738251Y-51992056D01*
X111716105Y-51982814D01*
X111690378Y-51972765D01*
X111671237Y-51965617D01*
X111650505Y-51958110D01*
X111628182Y-51950245D01*
X111604267Y-51942021D01*
X111578761Y-51933438D01*
X111551663Y-51924497D01*
X111522974Y-51915196D01*
X111492694Y-51905537D01*
X111460822Y-51895519D01*
X111428759Y-51885034D01*
X111397784Y-51874095D01*
X111367897Y-51862701D01*
X111339097Y-51850853D01*
X111311385Y-51838552D01*
X111284761Y-51825796D01*
X111259224Y-51812586D01*
X111234775Y-51798921D01*
X111211414Y-51784803D01*
X111189140Y-51770230D01*
X111167954Y-51755204D01*
X111147855Y-51739723D01*
X111128844Y-51723788D01*
X111110921Y-51707399D01*
X111094085Y-51690556D01*
X111078337Y-51673258D01*
X111063608Y-51655402D01*
X111049830Y-51637004D01*
X111037001Y-51618063D01*
X111025123Y-51598581D01*
X111014195Y-51578557D01*
X111004217Y-51557991D01*
X110995190Y-51536883D01*
X110987113Y-51515233D01*
X110979986Y-51493042D01*
X110973809Y-51470308D01*
X110968583Y-51447032D01*
X110964307Y-51423215D01*
X110960981Y-51398855D01*
X110958605Y-51373954D01*
X110957180Y-51348511D01*
X110956705Y-51322526D01*
X110957287Y-51294587D01*
X110959032Y-51267189D01*
X110961942Y-51240334D01*
X110966016Y-51214021D01*
X110971254Y-51188249D01*
X110977656Y-51163020D01*
X110985222Y-51138332D01*
X110993952Y-51114187D01*
X111003845Y-51090583D01*
X111014903Y-51067521D01*
X111027125Y-51045001D01*
X111040510Y-51023023D01*
X111055060Y-51001587D01*
X111070774Y-50980693D01*
X111087651Y-50960340D01*
X111105693Y-50940530D01*
X111124604Y-50921601D01*
X111144092Y-50903893D01*
X111164156Y-50887407D01*
X111184797Y-50872142D01*
X111206014Y-50858098D01*
X111227806Y-50845275D01*
X111250176Y-50833674D01*
X111273121Y-50823293D01*
X111296643Y-50814134D01*
X111320741Y-50806196D01*
X111345415Y-50799480D01*
X111370666Y-50793984D01*
X111396492Y-50789710D01*
X111422895Y-50786657D01*
X111449875Y-50784825D01*
X111477430Y-50784214D01*
X111498552Y-50784688D01*
X111519661Y-50786107D01*
X111540760Y-50788473D01*
X111561847Y-50791786D01*
X111582922Y-50796045D01*
X111603986Y-50801250D01*
X111625039Y-50807402D01*
X111646080Y-50814501D01*
X111667110Y-50822545D01*
X111688128Y-50831536D01*
X111709135Y-50841474D01*
X111730130Y-50852358D01*
X111751114Y-50864189D01*
X111772086Y-50876966D01*
X111793047Y-50890689D01*
X111813997Y-50905359D01*
X111830851Y-50894277D01*
X111848134Y-50882099D01*
X111865846Y-50868823D01*
X111883988Y-50854450D01*
X111902559Y-50838979D01*
X111917725Y-50825813D01*
X111929280Y-50815478D01*
X112017207Y-50815478D01*
G37*
G36*
X112937875Y-51534721D02*
G01*
X112961671Y-51535299D01*
X112984968Y-51536263D01*
X113007764Y-51537612D01*
X113030061Y-51539347D01*
X113051858Y-51541466D01*
X113073155Y-51543972D01*
X113093952Y-51546863D01*
X113114249Y-51550139D01*
X113134046Y-51553801D01*
X113153343Y-51557848D01*
X113181351Y-51564641D01*
X113208234Y-51572302D01*
X113233993Y-51580830D01*
X113242329Y-51583866D01*
X113266074Y-51594202D01*
X113287483Y-51606712D01*
X113306557Y-51621394D01*
X113323296Y-51638248D01*
X113337698Y-51657274D01*
X113349765Y-51678473D01*
X113359497Y-51701845D01*
X113366893Y-51727389D01*
X113371953Y-51755105D01*
X113374029Y-51774789D01*
X113375067Y-51795439D01*
X113375197Y-51806127D01*
X113375197Y-52385471D01*
X113375936Y-52412184D01*
X113378151Y-52436269D01*
X113381843Y-52457727D01*
X113389064Y-52482251D01*
X113398910Y-52502103D01*
X113411381Y-52517284D01*
X113430663Y-52529692D01*
X113454048Y-52534801D01*
X113459217Y-52534947D01*
X113479275Y-52530551D01*
X113497565Y-52521483D01*
X113516158Y-52509271D01*
X113523697Y-52503684D01*
X113560822Y-52562302D01*
X113546083Y-52577919D01*
X113531055Y-52592527D01*
X113515736Y-52606129D01*
X113500127Y-52618722D01*
X113484229Y-52630309D01*
X113459837Y-52645799D01*
X113434792Y-52659023D01*
X113409095Y-52669979D01*
X113382746Y-52678669D01*
X113355744Y-52685092D01*
X113328089Y-52689248D01*
X113299781Y-52691137D01*
X113290201Y-52691263D01*
X113270316Y-52690614D01*
X113250839Y-52688668D01*
X113222390Y-52683315D01*
X113194860Y-52675043D01*
X113168249Y-52663852D01*
X113142556Y-52649741D01*
X113125938Y-52638712D01*
X113109728Y-52626386D01*
X113093927Y-52612761D01*
X113078534Y-52597840D01*
X113063549Y-52581620D01*
X113048973Y-52564104D01*
X113034805Y-52545289D01*
X113021045Y-52525177D01*
X112998418Y-52545289D01*
X112975479Y-52564104D01*
X112952226Y-52581620D01*
X112928660Y-52597840D01*
X112904782Y-52612761D01*
X112880590Y-52626386D01*
X112856086Y-52638712D01*
X112831268Y-52649741D01*
X112806138Y-52659473D01*
X112780695Y-52667907D01*
X112754939Y-52675043D01*
X112728870Y-52680882D01*
X112702488Y-52685424D01*
X112675793Y-52688668D01*
X112648785Y-52690614D01*
X112621464Y-52691263D01*
X112594174Y-52690589D01*
X112567992Y-52688566D01*
X112542917Y-52685196D01*
X112518950Y-52680478D01*
X112496091Y-52674411D01*
X112474340Y-52666997D01*
X112453696Y-52658234D01*
X112434160Y-52648123D01*
X112415732Y-52636664D01*
X112398411Y-52623857D01*
X112387479Y-52614570D01*
X112372289Y-52599864D01*
X112358594Y-52584506D01*
X112346392Y-52568494D01*
X112335684Y-52551830D01*
X112326471Y-52534514D01*
X112318751Y-52516545D01*
X112312526Y-52497923D01*
X112307795Y-52478649D01*
X112304558Y-52458722D01*
X112302815Y-52438143D01*
X112302483Y-52424061D01*
X112303164Y-52401765D01*
X112305207Y-52380122D01*
X112308613Y-52359133D01*
X112313382Y-52338797D01*
X112315733Y-52331249D01*
X112669335Y-52331249D01*
X112670038Y-52354314D01*
X112672144Y-52376128D01*
X112675655Y-52396690D01*
X112680571Y-52416001D01*
X112688690Y-52438379D01*
X112699003Y-52458801D01*
X112711511Y-52477267D01*
X112714276Y-52480725D01*
X112729105Y-52496346D01*
X112745198Y-52509319D01*
X112762555Y-52519644D01*
X112781176Y-52527322D01*
X112801061Y-52532353D01*
X112822210Y-52534735D01*
X112831024Y-52534947D01*
X112850716Y-52534100D01*
X112873700Y-52530658D01*
X112894871Y-52524569D01*
X112914229Y-52515832D01*
X112931774Y-52504447D01*
X112947507Y-52490415D01*
X112956076Y-52480725D01*
X112968742Y-52461362D01*
X112977328Y-52442609D01*
X112984541Y-52420955D01*
X112990380Y-52396401D01*
X112993858Y-52376082D01*
X112996563Y-52354132D01*
X112998495Y-52330550D01*
X112999654Y-52305337D01*
X113000040Y-52278492D01*
X113000040Y-52097264D01*
X112977337Y-52098296D01*
X112955512Y-52099684D01*
X112934564Y-52101426D01*
X112914494Y-52103523D01*
X112886035Y-52107334D01*
X112859551Y-52111943D01*
X112835042Y-52117352D01*
X112812507Y-52123558D01*
X112791948Y-52130564D01*
X112773364Y-52138367D01*
X112751657Y-52150015D01*
X112742120Y-52156371D01*
X112725061Y-52170537D01*
X112710277Y-52186901D01*
X112697767Y-52205464D01*
X112687531Y-52226224D01*
X112679571Y-52249183D01*
X112673884Y-52274340D01*
X112671112Y-52294650D01*
X112669620Y-52316197D01*
X112669335Y-52331249D01*
X112315733Y-52331249D01*
X112319513Y-52319115D01*
X112327006Y-52300087D01*
X112335862Y-52281712D01*
X112346080Y-52263990D01*
X112357661Y-52246922D01*
X112370603Y-52230508D01*
X112384909Y-52214747D01*
X112400577Y-52199640D01*
X112417607Y-52185186D01*
X112435999Y-52171386D01*
X112455755Y-52158239D01*
X112476872Y-52145746D01*
X112499352Y-52133907D01*
X112523194Y-52122721D01*
X112548399Y-52112188D01*
X112574966Y-52102309D01*
X112602896Y-52093084D01*
X112632188Y-52084512D01*
X112662842Y-52076593D01*
X112694859Y-52069329D01*
X112728238Y-52062717D01*
X112762980Y-52056760D01*
X112799084Y-52051456D01*
X112836550Y-52046805D01*
X112875379Y-52042808D01*
X112915570Y-52039464D01*
X112957124Y-52036774D01*
X113000040Y-52034738D01*
X113000040Y-51783168D01*
X112999651Y-51758583D01*
X112998483Y-51735876D01*
X112996537Y-51715047D01*
X112993009Y-51691651D01*
X112988265Y-51671188D01*
X112980966Y-51650506D01*
X112975127Y-51639064D01*
X112960749Y-51622695D01*
X112942545Y-51611865D01*
X112923230Y-51605096D01*
X112900146Y-51600378D01*
X112878965Y-51598080D01*
X112855373Y-51597096D01*
X112849098Y-51597055D01*
X112829383Y-51597429D01*
X112806306Y-51598948D01*
X112784971Y-51601636D01*
X112765377Y-51605493D01*
X112744162Y-51611664D01*
X112725454Y-51619518D01*
X112722580Y-51620990D01*
X112705069Y-51631295D01*
X112688875Y-51644682D01*
X112678342Y-51662771D01*
X112677640Y-51668862D01*
X112684724Y-51687975D01*
X112697317Y-51704652D01*
X112709880Y-51718199D01*
X112723985Y-51735388D01*
X112734060Y-51754713D01*
X112740105Y-51776176D01*
X112742088Y-51796709D01*
X112742120Y-51799776D01*
X112740808Y-51821293D01*
X112736872Y-51841879D01*
X112730313Y-51861536D01*
X112721130Y-51880262D01*
X112709323Y-51898058D01*
X112694893Y-51914923D01*
X112688386Y-51921409D01*
X112670927Y-51936045D01*
X112652132Y-51948200D01*
X112632001Y-51957874D01*
X112610534Y-51965068D01*
X112587732Y-51969781D01*
X112563593Y-51972013D01*
X112553564Y-51972212D01*
X112531003Y-51971079D01*
X112509419Y-51967680D01*
X112488814Y-51962015D01*
X112469186Y-51954084D01*
X112450536Y-51943888D01*
X112432864Y-51931425D01*
X112426069Y-51925806D01*
X112410590Y-51910662D01*
X112397734Y-51894541D01*
X112387501Y-51877441D01*
X112379892Y-51859364D01*
X112374907Y-51840309D01*
X112372546Y-51820275D01*
X112372336Y-51811988D01*
X112373598Y-51790590D01*
X112377385Y-51769811D01*
X112383696Y-51749649D01*
X112392532Y-51730106D01*
X112403892Y-51711181D01*
X112417777Y-51692874D01*
X112434186Y-51675186D01*
X112453119Y-51658115D01*
X112474577Y-51641663D01*
X112498560Y-51625829D01*
X112515951Y-51615617D01*
X112534334Y-51605798D01*
X112553580Y-51596612D01*
X112573688Y-51588060D01*
X112594658Y-51580141D01*
X112616491Y-51572856D01*
X112639187Y-51566204D01*
X112662745Y-51560185D01*
X112687165Y-51554801D01*
X112712448Y-51550049D01*
X112738593Y-51545932D01*
X112765601Y-51542447D01*
X112793472Y-51539596D01*
X112822205Y-51537379D01*
X112851800Y-51535795D01*
X112882258Y-51534845D01*
X112913578Y-51534528D01*
X112937875Y-51534721D01*
G37*
G36*
X114175337Y-51534528D02*
G01*
X114175337Y-51775352D01*
X114180710Y-51775352D01*
X114199364Y-51746190D01*
X114218934Y-51718909D01*
X114239420Y-51693510D01*
X114260822Y-51669992D01*
X114283139Y-51648355D01*
X114306373Y-51628600D01*
X114330523Y-51610727D01*
X114355588Y-51594734D01*
X114381569Y-51580624D01*
X114408467Y-51568394D01*
X114436280Y-51558046D01*
X114465009Y-51549580D01*
X114494654Y-51542995D01*
X114525215Y-51538291D01*
X114556691Y-51535469D01*
X114589084Y-51534528D01*
X114610721Y-51534954D01*
X114631851Y-51536229D01*
X114652475Y-51538354D01*
X114672592Y-51541329D01*
X114692203Y-51545154D01*
X114711307Y-51549830D01*
X114735990Y-51557386D01*
X114759774Y-51566454D01*
X114782656Y-51577032D01*
X114793760Y-51582889D01*
X114814742Y-51595009D01*
X114833724Y-51607191D01*
X114850706Y-51619433D01*
X114869122Y-51634823D01*
X114884414Y-51650307D01*
X114896581Y-51665887D01*
X114905623Y-51681563D01*
X114913757Y-51702251D01*
X114919250Y-51722272D01*
X114923575Y-51744822D01*
X114926193Y-51764682D01*
X114928063Y-51786160D01*
X114929185Y-51809256D01*
X114929559Y-51833970D01*
X114929559Y-52566210D01*
X115086363Y-52566210D01*
X115086363Y-52660000D01*
X114395155Y-52660000D01*
X114395155Y-52566210D01*
X114554890Y-52566210D01*
X114554890Y-51821758D01*
X114554447Y-51797586D01*
X114553119Y-51775627D01*
X114550906Y-51755881D01*
X114546894Y-51734312D01*
X114540254Y-51712994D01*
X114529989Y-51694418D01*
X114526558Y-51690355D01*
X114511171Y-51676892D01*
X114492852Y-51667274D01*
X114471603Y-51661504D01*
X114450606Y-51659611D01*
X114447423Y-51659581D01*
X114425229Y-51661704D01*
X114401389Y-51668072D01*
X114381132Y-51676224D01*
X114359822Y-51687092D01*
X114337459Y-51700678D01*
X114319995Y-51712651D01*
X114301939Y-51726152D01*
X114283290Y-51741182D01*
X114276942Y-51746531D01*
X114258784Y-51763816D01*
X114242412Y-51783248D01*
X114227826Y-51804826D01*
X114215026Y-51828551D01*
X114204012Y-51854423D01*
X114194785Y-51882441D01*
X114189625Y-51902312D01*
X114185259Y-51923138D01*
X114181687Y-51944918D01*
X114178909Y-51967651D01*
X114176924Y-51991339D01*
X114175734Y-52015981D01*
X114175337Y-52041577D01*
X114175337Y-52566210D01*
X114336049Y-52566210D01*
X114336049Y-52660000D01*
X113640933Y-52660000D01*
X113640933Y-52566210D01*
X113800180Y-52566210D01*
X113800180Y-51659581D01*
X113643864Y-51659581D01*
X113643864Y-51565792D01*
X113744004Y-51565792D01*
X113769528Y-51565654D01*
X113794991Y-51565242D01*
X113820395Y-51564555D01*
X113845739Y-51563593D01*
X113871022Y-51562357D01*
X113896245Y-51560846D01*
X113921409Y-51559060D01*
X113946512Y-51556999D01*
X113971555Y-51554663D01*
X113996538Y-51552053D01*
X114013160Y-51550160D01*
X114135281Y-51534528D01*
X114175337Y-51534528D01*
G37*
G36*
X115825802Y-51534721D02*
G01*
X115849599Y-51535299D01*
X115872895Y-51536263D01*
X115895692Y-51537612D01*
X115917988Y-51539347D01*
X115939785Y-51541466D01*
X115961082Y-51543972D01*
X115981879Y-51546863D01*
X116002176Y-51550139D01*
X116021973Y-51553801D01*
X116041270Y-51557848D01*
X116069278Y-51564641D01*
X116096162Y-51572302D01*
X116121920Y-51580830D01*
X116130257Y-51583866D01*
X116154001Y-51594202D01*
X116175411Y-51606712D01*
X116194485Y-51621394D01*
X116211223Y-51638248D01*
X116225626Y-51657274D01*
X116237693Y-51678473D01*
X116247424Y-51701845D01*
X116254820Y-51727389D01*
X116259881Y-51755105D01*
X116261957Y-51774789D01*
X116262995Y-51795439D01*
X116263125Y-51806127D01*
X116263125Y-52385471D01*
X116263863Y-52412184D01*
X116266078Y-52436269D01*
X116269771Y-52457727D01*
X116276991Y-52482251D01*
X116286837Y-52502103D01*
X116299309Y-52517284D01*
X116318591Y-52529692D01*
X116341975Y-52534801D01*
X116347144Y-52534947D01*
X116367203Y-52530551D01*
X116385492Y-52521483D01*
X116404085Y-52509271D01*
X116411624Y-52503684D01*
X116448749Y-52562302D01*
X116434011Y-52577919D01*
X116418982Y-52592527D01*
X116403663Y-52606129D01*
X116388055Y-52618722D01*
X116372156Y-52630309D01*
X116347764Y-52645799D01*
X116322720Y-52659023D01*
X116297023Y-52669979D01*
X116270673Y-52678669D01*
X116243671Y-52685092D01*
X116216016Y-52689248D01*
X116187709Y-52691137D01*
X116178128Y-52691263D01*
X116158243Y-52690614D01*
X116138767Y-52688668D01*
X116110318Y-52683315D01*
X116082788Y-52675043D01*
X116056176Y-52663852D01*
X116030483Y-52649741D01*
X116013865Y-52638712D01*
X115997656Y-52626386D01*
X115981854Y-52612761D01*
X115966461Y-52597840D01*
X115951476Y-52581620D01*
X115936900Y-52564104D01*
X115922732Y-52545289D01*
X115908972Y-52525177D01*
X115886346Y-52545289D01*
X115863406Y-52564104D01*
X115840153Y-52581620D01*
X115816588Y-52597840D01*
X115792709Y-52612761D01*
X115768518Y-52626386D01*
X115744013Y-52638712D01*
X115719196Y-52649741D01*
X115694066Y-52659473D01*
X115668622Y-52667907D01*
X115642866Y-52675043D01*
X115616797Y-52680882D01*
X115590415Y-52685424D01*
X115563720Y-52688668D01*
X115536712Y-52690614D01*
X115509391Y-52691263D01*
X115482101Y-52690589D01*
X115455919Y-52688566D01*
X115430845Y-52685196D01*
X115406878Y-52680478D01*
X115384019Y-52674411D01*
X115362267Y-52666997D01*
X115341624Y-52658234D01*
X115322087Y-52648123D01*
X115303659Y-52636664D01*
X115286338Y-52623857D01*
X115275407Y-52614570D01*
X115260217Y-52599864D01*
X115246521Y-52584506D01*
X115234319Y-52568494D01*
X115223612Y-52551830D01*
X115214398Y-52534514D01*
X115206679Y-52516545D01*
X115200454Y-52497923D01*
X115195722Y-52478649D01*
X115192485Y-52458722D01*
X115190742Y-52438143D01*
X115190410Y-52424061D01*
X115191091Y-52401765D01*
X115193135Y-52380122D01*
X115196541Y-52359133D01*
X115201309Y-52338797D01*
X115203660Y-52331249D01*
X115557263Y-52331249D01*
X115557965Y-52354314D01*
X115560072Y-52376128D01*
X115563583Y-52396690D01*
X115568498Y-52416001D01*
X115576617Y-52438379D01*
X115586931Y-52458801D01*
X115599439Y-52477267D01*
X115602203Y-52480725D01*
X115617032Y-52496346D01*
X115633125Y-52509319D01*
X115650482Y-52519644D01*
X115669103Y-52527322D01*
X115688988Y-52532353D01*
X115710138Y-52534735D01*
X115718952Y-52534947D01*
X115738644Y-52534100D01*
X115761627Y-52530658D01*
X115782798Y-52524569D01*
X115802156Y-52515832D01*
X115819702Y-52504447D01*
X115835434Y-52490415D01*
X115844004Y-52480725D01*
X115856669Y-52461362D01*
X115865256Y-52442609D01*
X115872469Y-52420955D01*
X115878308Y-52396401D01*
X115881785Y-52376082D01*
X115884490Y-52354132D01*
X115886422Y-52330550D01*
X115887581Y-52305337D01*
X115887968Y-52278492D01*
X115887968Y-52097264D01*
X115865264Y-52098296D01*
X115843439Y-52099684D01*
X115822491Y-52101426D01*
X115802422Y-52103523D01*
X115773962Y-52107334D01*
X115747478Y-52111943D01*
X115722969Y-52117352D01*
X115700435Y-52123558D01*
X115679876Y-52130564D01*
X115661291Y-52138367D01*
X115639584Y-52150015D01*
X115630047Y-52156371D01*
X115612988Y-52170537D01*
X115598204Y-52186901D01*
X115585694Y-52205464D01*
X115575459Y-52226224D01*
X115567498Y-52249183D01*
X115561812Y-52274340D01*
X115559040Y-52294650D01*
X115557547Y-52316197D01*
X115557263Y-52331249D01*
X115203660Y-52331249D01*
X115207440Y-52319115D01*
X115214934Y-52300087D01*
X115223789Y-52281712D01*
X115234007Y-52263990D01*
X115245588Y-52246922D01*
X115258531Y-52230508D01*
X115272836Y-52214747D01*
X115288504Y-52199640D01*
X115305534Y-52185186D01*
X115323927Y-52171386D01*
X115343682Y-52158239D01*
X115364799Y-52145746D01*
X115387279Y-52133907D01*
X115411122Y-52122721D01*
X115436326Y-52112188D01*
X115462893Y-52102309D01*
X115490823Y-52093084D01*
X115520115Y-52084512D01*
X115550769Y-52076593D01*
X115582786Y-52069329D01*
X115616165Y-52062717D01*
X115650907Y-52056760D01*
X115687011Y-52051456D01*
X115724478Y-52046805D01*
X115763306Y-52042808D01*
X115803498Y-52039464D01*
X115845051Y-52036774D01*
X115887968Y-52034738D01*
X115887968Y-51783168D01*
X115887578Y-51758583D01*
X115886411Y-51735876D01*
X115884464Y-51715047D01*
X115880937Y-51691651D01*
X115876192Y-51671188D01*
X115868894Y-51650506D01*
X115863055Y-51639064D01*
X115848676Y-51622695D01*
X115830472Y-51611865D01*
X115811157Y-51605096D01*
X115788073Y-51600378D01*
X115766893Y-51598080D01*
X115743300Y-51597096D01*
X115737026Y-51597055D01*
X115717311Y-51597429D01*
X115694234Y-51598948D01*
X115672898Y-51601636D01*
X115653304Y-51605493D01*
X115632089Y-51611664D01*
X115613382Y-51619518D01*
X115610508Y-51620990D01*
X115592997Y-51631295D01*
X115576802Y-51644682D01*
X115566269Y-51662771D01*
X115565567Y-51668862D01*
X115572651Y-51687975D01*
X115585245Y-51704652D01*
X115597807Y-51718199D01*
X115611912Y-51735388D01*
X115621987Y-51754713D01*
X115628032Y-51776176D01*
X115630016Y-51796709D01*
X115630047Y-51799776D01*
X115628735Y-51821293D01*
X115624800Y-51841879D01*
X115618241Y-51861536D01*
X115609058Y-51880262D01*
X115597251Y-51898058D01*
X115582821Y-51914923D01*
X115576314Y-51921409D01*
X115558854Y-51936045D01*
X115540059Y-51948200D01*
X115519928Y-51957874D01*
X115498461Y-51965068D01*
X115475659Y-51969781D01*
X115451521Y-51972013D01*
X115441492Y-51972212D01*
X115418930Y-51971079D01*
X115397347Y-51967680D01*
X115376741Y-51962015D01*
X115357113Y-51954084D01*
X115338464Y-51943888D01*
X115320792Y-51931425D01*
X115313997Y-51925806D01*
X115298517Y-51910662D01*
X115285661Y-51894541D01*
X115275428Y-51877441D01*
X115267820Y-51859364D01*
X115262835Y-51840309D01*
X115260473Y-51820275D01*
X115260263Y-51811988D01*
X115261526Y-51790590D01*
X115265312Y-51769811D01*
X115271624Y-51749649D01*
X115280459Y-51730106D01*
X115291819Y-51711181D01*
X115305704Y-51692874D01*
X115322113Y-51675186D01*
X115341047Y-51658115D01*
X115362505Y-51641663D01*
X115386487Y-51625829D01*
X115403878Y-51615617D01*
X115422261Y-51605798D01*
X115441507Y-51596612D01*
X115461615Y-51588060D01*
X115482586Y-51580141D01*
X115504419Y-51572856D01*
X115527114Y-51566204D01*
X115550672Y-51560185D01*
X115575093Y-51554801D01*
X115600375Y-51550049D01*
X115626521Y-51545932D01*
X115653529Y-51542447D01*
X115681399Y-51539596D01*
X115710132Y-51537379D01*
X115739727Y-51535795D01*
X115770185Y-51534845D01*
X115801506Y-51534528D01*
X115825802Y-51534721D01*
G37*
G36*
X117389084Y-51534528D02*
G01*
X117389084Y-51878422D01*
X117305065Y-51878422D01*
X117294780Y-51848136D01*
X117283098Y-51819804D01*
X117270020Y-51793426D01*
X117255544Y-51769002D01*
X117239672Y-51746531D01*
X117222404Y-51726015D01*
X117203738Y-51707452D01*
X117183676Y-51690844D01*
X117162217Y-51676189D01*
X117139361Y-51663489D01*
X117115109Y-51652742D01*
X117089459Y-51643949D01*
X117062413Y-51637110D01*
X117033970Y-51632226D01*
X117004131Y-51629295D01*
X116972894Y-51628318D01*
X116949241Y-51628997D01*
X116926397Y-51631035D01*
X116904361Y-51634431D01*
X116883135Y-51639187D01*
X116862718Y-51645300D01*
X116843110Y-51652773D01*
X116824311Y-51661603D01*
X116806321Y-51671793D01*
X116789949Y-51682837D01*
X116772554Y-51697480D01*
X116758569Y-51713053D01*
X116747996Y-51729556D01*
X116739810Y-51750587D01*
X116736535Y-51772959D01*
X116736467Y-51776817D01*
X116739062Y-51798920D01*
X116746846Y-51818638D01*
X116759819Y-51835972D01*
X116775069Y-51848932D01*
X116790689Y-51858394D01*
X116811736Y-51867201D01*
X116834481Y-51874177D01*
X116854986Y-51879369D01*
X116878445Y-51884527D01*
X116904857Y-51889650D01*
X116924107Y-51893046D01*
X116944669Y-51896428D01*
X116966544Y-51899794D01*
X116989732Y-51903144D01*
X117014232Y-51906480D01*
X117040046Y-51909800D01*
X117067172Y-51913105D01*
X117094504Y-51916665D01*
X117120814Y-51920753D01*
X117146101Y-51925367D01*
X117170365Y-51930507D01*
X117193606Y-51936174D01*
X117215824Y-51942368D01*
X117237020Y-51949089D01*
X117257193Y-51956336D01*
X117276343Y-51964110D01*
X117294471Y-51972410D01*
X117319744Y-51985848D01*
X117342716Y-52000471D01*
X117363387Y-52016279D01*
X117381757Y-52033272D01*
X117398256Y-52051317D01*
X117413133Y-52070281D01*
X117426386Y-52090163D01*
X117438017Y-52110964D01*
X117448024Y-52132684D01*
X117456409Y-52155323D01*
X117463171Y-52178881D01*
X117468310Y-52203357D01*
X117471827Y-52228752D01*
X117473720Y-52255066D01*
X117474081Y-52273119D01*
X117473627Y-52295818D01*
X117472264Y-52317998D01*
X117469993Y-52339660D01*
X117466814Y-52360802D01*
X117462727Y-52381425D01*
X117457732Y-52401530D01*
X117451828Y-52421115D01*
X117445016Y-52440181D01*
X117437295Y-52458728D01*
X117428667Y-52476756D01*
X117419130Y-52494265D01*
X117408685Y-52511256D01*
X117397331Y-52527727D01*
X117385069Y-52543679D01*
X117371899Y-52559112D01*
X117357821Y-52574026D01*
X117343029Y-52588223D01*
X117327596Y-52601503D01*
X117311522Y-52613868D01*
X117294806Y-52625317D01*
X117277450Y-52635850D01*
X117259452Y-52645467D01*
X117240813Y-52654168D01*
X117221534Y-52661953D01*
X117201612Y-52668823D01*
X117181050Y-52674776D01*
X117159847Y-52679814D01*
X117138003Y-52683935D01*
X117115517Y-52687141D01*
X117092390Y-52689431D01*
X117068622Y-52690805D01*
X117044213Y-52691263D01*
X117020117Y-52690812D01*
X116996555Y-52689461D01*
X116973528Y-52687210D01*
X116951035Y-52684057D01*
X116929076Y-52680005D01*
X116907651Y-52675051D01*
X116886761Y-52669197D01*
X116866404Y-52662442D01*
X116846583Y-52654786D01*
X116827295Y-52646230D01*
X116808542Y-52636774D01*
X116790323Y-52626416D01*
X116772638Y-52615158D01*
X116755488Y-52602999D01*
X116738872Y-52589940D01*
X116722790Y-52575980D01*
X116636328Y-52660000D01*
X116572825Y-52660000D01*
X116572825Y-52253579D01*
X116655379Y-52253579D01*
X116661173Y-52274737D01*
X116667383Y-52295223D01*
X116674007Y-52315037D01*
X116681047Y-52334180D01*
X116688502Y-52352650D01*
X116704656Y-52387577D01*
X116722471Y-52419817D01*
X116741945Y-52449371D01*
X116763080Y-52476237D01*
X116785874Y-52500417D01*
X116810329Y-52521911D01*
X116836444Y-52540717D01*
X116864219Y-52556837D01*
X116893654Y-52570271D01*
X116924749Y-52581017D01*
X116957505Y-52589077D01*
X116991920Y-52594451D01*
X117027995Y-52597137D01*
X117046656Y-52597473D01*
X117066814Y-52597053D01*
X117086441Y-52595790D01*
X117111781Y-52592798D01*
X117136174Y-52588310D01*
X117159622Y-52582326D01*
X117182123Y-52574847D01*
X117203677Y-52565871D01*
X117224285Y-52555399D01*
X117234234Y-52549602D01*
X117252781Y-52537107D01*
X117268856Y-52523804D01*
X117282457Y-52509691D01*
X117295981Y-52490912D01*
X117305641Y-52470870D01*
X117311437Y-52449563D01*
X117313369Y-52426992D01*
X117311359Y-52405273D01*
X117305328Y-52385425D01*
X117295277Y-52367446D01*
X117281205Y-52351338D01*
X117271359Y-52342972D01*
X117251719Y-52331214D01*
X117229133Y-52322203D01*
X117206995Y-52315509D01*
X117188017Y-52310789D01*
X117167004Y-52306327D01*
X117143956Y-52302123D01*
X117118873Y-52298176D01*
X117091755Y-52294486D01*
X117072545Y-52292170D01*
X117053099Y-52289859D01*
X117024739Y-52286200D01*
X116997349Y-52282308D01*
X116970929Y-52278185D01*
X116945480Y-52273831D01*
X116921001Y-52269244D01*
X116897492Y-52264425D01*
X116874953Y-52259375D01*
X116853385Y-52254093D01*
X116832787Y-52248579D01*
X116813160Y-52242833D01*
X116794435Y-52236533D01*
X116770484Y-52226771D01*
X116747693Y-52215452D01*
X116726062Y-52202576D01*
X116705592Y-52188142D01*
X116686281Y-52172152D01*
X116668131Y-52154605D01*
X116651141Y-52135500D01*
X116647074Y-52130481D01*
X116631962Y-52109255D01*
X116621950Y-52092243D01*
X116613071Y-52074296D01*
X116605326Y-52055412D01*
X116598714Y-52035593D01*
X116593236Y-52014837D01*
X116588891Y-51993146D01*
X116585680Y-51970519D01*
X116583602Y-51946955D01*
X116582657Y-51922456D01*
X116582594Y-51914082D01*
X116583560Y-51885251D01*
X116586458Y-51857192D01*
X116591288Y-51829907D01*
X116598050Y-51803394D01*
X116606744Y-51777654D01*
X116617370Y-51752687D01*
X116629928Y-51728493D01*
X116644418Y-51705071D01*
X116660840Y-51682422D01*
X116679194Y-51660546D01*
X116692504Y-51646392D01*
X116713850Y-51626401D01*
X116736673Y-51608376D01*
X116760974Y-51592317D01*
X116777994Y-51582704D01*
X116795671Y-51573965D01*
X116814005Y-51566099D01*
X116832995Y-51559108D01*
X116852641Y-51552990D01*
X116872944Y-51547747D01*
X116893903Y-51543377D01*
X116915518Y-51539881D01*
X116937790Y-51537259D01*
X116960718Y-51535512D01*
X116984303Y-51534638D01*
X116996342Y-51534528D01*
X117021984Y-51535220D01*
X117047438Y-51537293D01*
X117072703Y-51540749D01*
X117097779Y-51545588D01*
X117122666Y-51551809D01*
X117147364Y-51559413D01*
X117171873Y-51568399D01*
X117196193Y-51578767D01*
X117220325Y-51590518D01*
X117244267Y-51603651D01*
X117260124Y-51613175D01*
X117324604Y-51534528D01*
X117389084Y-51534528D01*
G37*
G36*
X118438351Y-51534528D02*
G01*
X118438351Y-51878422D01*
X118354332Y-51878422D01*
X118344047Y-51848136D01*
X118332365Y-51819804D01*
X118319287Y-51793426D01*
X118304812Y-51769002D01*
X118288940Y-51746531D01*
X118271671Y-51726015D01*
X118253005Y-51707452D01*
X118232943Y-51690844D01*
X118211484Y-51676189D01*
X118188628Y-51663489D01*
X118164376Y-51652742D01*
X118138727Y-51643949D01*
X118111680Y-51637110D01*
X118083238Y-51632226D01*
X118053398Y-51629295D01*
X118022162Y-51628318D01*
X117998508Y-51628997D01*
X117975664Y-51631035D01*
X117953629Y-51634431D01*
X117932402Y-51639187D01*
X117911985Y-51645300D01*
X117892377Y-51652773D01*
X117873578Y-51661603D01*
X117855588Y-51671793D01*
X117839216Y-51682837D01*
X117821821Y-51697480D01*
X117807837Y-51713053D01*
X117797263Y-51729556D01*
X117789077Y-51750587D01*
X117785803Y-51772959D01*
X117785735Y-51776817D01*
X117788329Y-51798920D01*
X117796113Y-51818638D01*
X117809086Y-51835972D01*
X117824336Y-51848932D01*
X117839956Y-51858394D01*
X117861003Y-51867201D01*
X117883748Y-51874177D01*
X117904253Y-51879369D01*
X117927712Y-51884527D01*
X117954125Y-51889650D01*
X117973374Y-51893046D01*
X117993936Y-51896428D01*
X118015811Y-51899794D01*
X118038999Y-51903144D01*
X118063500Y-51906480D01*
X118089313Y-51909800D01*
X118116439Y-51913105D01*
X118143772Y-51916665D01*
X118170081Y-51920753D01*
X118195368Y-51925367D01*
X118219632Y-51930507D01*
X118242873Y-51936174D01*
X118265092Y-51942368D01*
X118286287Y-51949089D01*
X118306460Y-51956336D01*
X118325610Y-51964110D01*
X118343738Y-51972410D01*
X118369011Y-51985848D01*
X118391983Y-52000471D01*
X118412654Y-52016279D01*
X118431024Y-52033272D01*
X118447523Y-52051317D01*
X118462400Y-52070281D01*
X118475653Y-52090163D01*
X118487284Y-52110964D01*
X118497292Y-52132684D01*
X118505677Y-52155323D01*
X118512439Y-52178881D01*
X118517578Y-52203357D01*
X118521094Y-52228752D01*
X118522987Y-52255066D01*
X118523348Y-52273119D01*
X118522894Y-52295818D01*
X118521531Y-52317998D01*
X118519261Y-52339660D01*
X118516082Y-52360802D01*
X118511994Y-52381425D01*
X118506999Y-52401530D01*
X118501095Y-52421115D01*
X118494283Y-52440181D01*
X118486563Y-52458728D01*
X118477934Y-52476756D01*
X118468397Y-52494265D01*
X118457952Y-52511256D01*
X118446598Y-52527727D01*
X118434337Y-52543679D01*
X118421167Y-52559112D01*
X118407088Y-52574026D01*
X118392296Y-52588223D01*
X118376863Y-52601503D01*
X118360789Y-52613868D01*
X118344074Y-52625317D01*
X118326717Y-52635850D01*
X118308720Y-52645467D01*
X118290081Y-52654168D01*
X118270801Y-52661953D01*
X118250880Y-52668823D01*
X118230318Y-52674776D01*
X118209114Y-52679814D01*
X118187270Y-52683935D01*
X118164784Y-52687141D01*
X118141657Y-52689431D01*
X118117890Y-52690805D01*
X118093481Y-52691263D01*
X118069384Y-52690812D01*
X118045823Y-52689461D01*
X118022795Y-52687210D01*
X118000302Y-52684057D01*
X117978343Y-52680005D01*
X117956918Y-52675051D01*
X117936028Y-52669197D01*
X117915672Y-52662442D01*
X117895850Y-52654786D01*
X117876562Y-52646230D01*
X117857809Y-52636774D01*
X117839590Y-52626416D01*
X117821905Y-52615158D01*
X117804755Y-52602999D01*
X117788139Y-52589940D01*
X117772057Y-52575980D01*
X117685595Y-52660000D01*
X117622092Y-52660000D01*
X117622092Y-52253579D01*
X117704646Y-52253579D01*
X117710440Y-52274737D01*
X117716650Y-52295223D01*
X117723275Y-52315037D01*
X117730314Y-52334180D01*
X117737769Y-52352650D01*
X117753923Y-52387577D01*
X117771738Y-52419817D01*
X117791212Y-52449371D01*
X117812347Y-52476237D01*
X117835142Y-52500417D01*
X117859597Y-52521911D01*
X117885711Y-52540717D01*
X117913486Y-52556837D01*
X117942921Y-52570271D01*
X117974017Y-52581017D01*
X118006772Y-52589077D01*
X118041187Y-52594451D01*
X118077263Y-52597137D01*
X118095923Y-52597473D01*
X118116082Y-52597053D01*
X118135708Y-52595790D01*
X118161048Y-52592798D01*
X118185442Y-52588310D01*
X118208889Y-52582326D01*
X118231390Y-52574847D01*
X118252944Y-52565871D01*
X118273552Y-52555399D01*
X118283501Y-52549602D01*
X118302049Y-52537107D01*
X118318123Y-52523804D01*
X118331724Y-52509691D01*
X118345248Y-52490912D01*
X118354908Y-52470870D01*
X118360704Y-52449563D01*
X118362636Y-52426992D01*
X118360626Y-52405273D01*
X118354595Y-52385425D01*
X118344544Y-52367446D01*
X118330472Y-52351338D01*
X118320626Y-52342972D01*
X118300986Y-52331214D01*
X118278400Y-52322203D01*
X118256262Y-52315509D01*
X118237284Y-52310789D01*
X118216271Y-52306327D01*
X118193223Y-52302123D01*
X118168140Y-52298176D01*
X118141022Y-52294486D01*
X118121813Y-52292170D01*
X118102367Y-52289859D01*
X118074006Y-52286200D01*
X118046616Y-52282308D01*
X118020197Y-52278185D01*
X117994747Y-52273831D01*
X117970268Y-52269244D01*
X117946759Y-52264425D01*
X117924221Y-52259375D01*
X117902652Y-52254093D01*
X117882054Y-52248579D01*
X117862427Y-52242833D01*
X117843702Y-52236533D01*
X117819751Y-52226771D01*
X117796960Y-52215452D01*
X117775329Y-52202576D01*
X117754859Y-52188142D01*
X117735548Y-52172152D01*
X117717398Y-52154605D01*
X117700408Y-52135500D01*
X117696342Y-52130481D01*
X117681229Y-52109255D01*
X117671217Y-52092243D01*
X117662338Y-52074296D01*
X117654593Y-52055412D01*
X117647982Y-52035593D01*
X117642503Y-52014837D01*
X117638158Y-51993146D01*
X117634947Y-51970519D01*
X117632869Y-51946955D01*
X117631925Y-51922456D01*
X117631862Y-51914082D01*
X117632828Y-51885251D01*
X117635726Y-51857192D01*
X117640556Y-51829907D01*
X117647318Y-51803394D01*
X117656012Y-51777654D01*
X117666638Y-51752687D01*
X117679196Y-51728493D01*
X117693686Y-51705071D01*
X117710108Y-51682422D01*
X117728461Y-51660546D01*
X117741771Y-51646392D01*
X117763117Y-51626401D01*
X117785941Y-51608376D01*
X117810241Y-51592317D01*
X117827262Y-51582704D01*
X117844939Y-51573965D01*
X117863272Y-51566099D01*
X117882262Y-51559108D01*
X117901908Y-51552990D01*
X117922211Y-51547747D01*
X117943170Y-51543377D01*
X117964786Y-51539881D01*
X117987057Y-51537259D01*
X118009986Y-51535512D01*
X118033570Y-51534638D01*
X118045609Y-51534528D01*
X118071252Y-51535220D01*
X118096705Y-51537293D01*
X118121970Y-51540749D01*
X118147046Y-51545588D01*
X118171933Y-51551809D01*
X118196631Y-51559413D01*
X118221140Y-51568399D01*
X118245461Y-51578767D01*
X118269592Y-51590518D01*
X118293534Y-51603651D01*
X118309391Y-51613175D01*
X118373871Y-51534528D01*
X118438351Y-51534528D01*
G37*
G36*
X119296004Y-51534721D02*
G01*
X119319801Y-51535299D01*
X119343098Y-51536263D01*
X119365894Y-51537612D01*
X119388191Y-51539347D01*
X119409988Y-51541466D01*
X119431284Y-51543972D01*
X119452081Y-51546863D01*
X119472378Y-51550139D01*
X119492175Y-51553801D01*
X119511472Y-51557848D01*
X119539481Y-51564641D01*
X119566364Y-51572302D01*
X119592123Y-51580830D01*
X119600459Y-51583866D01*
X119624204Y-51594202D01*
X119645613Y-51606712D01*
X119664687Y-51621394D01*
X119681425Y-51638248D01*
X119695828Y-51657274D01*
X119707895Y-51678473D01*
X119717627Y-51701845D01*
X119725023Y-51727389D01*
X119730083Y-51755105D01*
X119732159Y-51774789D01*
X119733197Y-51795439D01*
X119733327Y-51806127D01*
X119733327Y-52385471D01*
X119734065Y-52412184D01*
X119736281Y-52436269D01*
X119739973Y-52457727D01*
X119747194Y-52482251D01*
X119757040Y-52502103D01*
X119769511Y-52517284D01*
X119788793Y-52529692D01*
X119812177Y-52534801D01*
X119817347Y-52534947D01*
X119837405Y-52530551D01*
X119855695Y-52521483D01*
X119874288Y-52509271D01*
X119881827Y-52503684D01*
X119918952Y-52562302D01*
X119904213Y-52577919D01*
X119889184Y-52592527D01*
X119873866Y-52606129D01*
X119858257Y-52618722D01*
X119842359Y-52630309D01*
X119817967Y-52645799D01*
X119792922Y-52659023D01*
X119767225Y-52669979D01*
X119740876Y-52678669D01*
X119713873Y-52685092D01*
X119686219Y-52689248D01*
X119657911Y-52691137D01*
X119648330Y-52691263D01*
X119628446Y-52690614D01*
X119608969Y-52688668D01*
X119580520Y-52683315D01*
X119552990Y-52675043D01*
X119526378Y-52663852D01*
X119500686Y-52649741D01*
X119484068Y-52638712D01*
X119467858Y-52626386D01*
X119452057Y-52612761D01*
X119436664Y-52597840D01*
X119421679Y-52581620D01*
X119407103Y-52564104D01*
X119392935Y-52545289D01*
X119379175Y-52525177D01*
X119356548Y-52545289D01*
X119333608Y-52564104D01*
X119310356Y-52581620D01*
X119286790Y-52597840D01*
X119262911Y-52612761D01*
X119238720Y-52626386D01*
X119214216Y-52638712D01*
X119189398Y-52649741D01*
X119164268Y-52659473D01*
X119138825Y-52667907D01*
X119113068Y-52675043D01*
X119086999Y-52680882D01*
X119060617Y-52685424D01*
X119033922Y-52688668D01*
X119006914Y-52690614D01*
X118979594Y-52691263D01*
X118952304Y-52690589D01*
X118926122Y-52688566D01*
X118901047Y-52685196D01*
X118877080Y-52680478D01*
X118854221Y-52674411D01*
X118832470Y-52666997D01*
X118811826Y-52658234D01*
X118792290Y-52648123D01*
X118773861Y-52636664D01*
X118756541Y-52623857D01*
X118745609Y-52614570D01*
X118730419Y-52599864D01*
X118716723Y-52584506D01*
X118704522Y-52568494D01*
X118693814Y-52551830D01*
X118684601Y-52534514D01*
X118676881Y-52516545D01*
X118670656Y-52497923D01*
X118665925Y-52478649D01*
X118662688Y-52458722D01*
X118660944Y-52438143D01*
X118660612Y-52424061D01*
X118661294Y-52401765D01*
X118663337Y-52380122D01*
X118666743Y-52359133D01*
X118671512Y-52338797D01*
X118673863Y-52331249D01*
X119027465Y-52331249D01*
X119028167Y-52354314D01*
X119030274Y-52376128D01*
X119033785Y-52396690D01*
X119038700Y-52416001D01*
X119046820Y-52438379D01*
X119057133Y-52458801D01*
X119069641Y-52477267D01*
X119072406Y-52480725D01*
X119087235Y-52496346D01*
X119103327Y-52509319D01*
X119120684Y-52519644D01*
X119139305Y-52527322D01*
X119159191Y-52532353D01*
X119180340Y-52534735D01*
X119189154Y-52534947D01*
X119208846Y-52534100D01*
X119231830Y-52530658D01*
X119253001Y-52524569D01*
X119272359Y-52515832D01*
X119289904Y-52504447D01*
X119305637Y-52490415D01*
X119314206Y-52480725D01*
X119326872Y-52461362D01*
X119335458Y-52442609D01*
X119342671Y-52420955D01*
X119348510Y-52396401D01*
X119351988Y-52376082D01*
X119354692Y-52354132D01*
X119356624Y-52330550D01*
X119357784Y-52305337D01*
X119358170Y-52278492D01*
X119358170Y-52097264D01*
X119335467Y-52098296D01*
X119313641Y-52099684D01*
X119292694Y-52101426D01*
X119272624Y-52103523D01*
X119244165Y-52107334D01*
X119217681Y-52111943D01*
X119193172Y-52117352D01*
X119170637Y-52123558D01*
X119150078Y-52130564D01*
X119131494Y-52138367D01*
X119109786Y-52150015D01*
X119100250Y-52156371D01*
X119083191Y-52170537D01*
X119068406Y-52186901D01*
X119055897Y-52205464D01*
X119045661Y-52226224D01*
X119037700Y-52249183D01*
X119032014Y-52274340D01*
X119029242Y-52294650D01*
X119027749Y-52316197D01*
X119027465Y-52331249D01*
X118673863Y-52331249D01*
X118677643Y-52319115D01*
X118685136Y-52300087D01*
X118693992Y-52281712D01*
X118704210Y-52263990D01*
X118715790Y-52246922D01*
X118728733Y-52230508D01*
X118743039Y-52214747D01*
X118758706Y-52199640D01*
X118775737Y-52185186D01*
X118794129Y-52171386D01*
X118813884Y-52158239D01*
X118835002Y-52145746D01*
X118857482Y-52133907D01*
X118881324Y-52122721D01*
X118906529Y-52112188D01*
X118933096Y-52102309D01*
X118961025Y-52093084D01*
X118990317Y-52084512D01*
X119020972Y-52076593D01*
X119052989Y-52069329D01*
X119086368Y-52062717D01*
X119121109Y-52056760D01*
X119157213Y-52051456D01*
X119194680Y-52046805D01*
X119233509Y-52042808D01*
X119273700Y-52039464D01*
X119315254Y-52036774D01*
X119358170Y-52034738D01*
X119358170Y-51783168D01*
X119357781Y-51758583D01*
X119356613Y-51735876D01*
X119354667Y-51715047D01*
X119351139Y-51691651D01*
X119346395Y-51671188D01*
X119339096Y-51650506D01*
X119333257Y-51639064D01*
X119318878Y-51622695D01*
X119300675Y-51611865D01*
X119281359Y-51605096D01*
X119258276Y-51600378D01*
X119237095Y-51598080D01*
X119213503Y-51597096D01*
X119207228Y-51597055D01*
X119187513Y-51597429D01*
X119164436Y-51598948D01*
X119143101Y-51601636D01*
X119123507Y-51605493D01*
X119102292Y-51611664D01*
X119083584Y-51619518D01*
X119080710Y-51620990D01*
X119063199Y-51631295D01*
X119047005Y-51644682D01*
X119036472Y-51662771D01*
X119035769Y-51668862D01*
X119042853Y-51687975D01*
X119055447Y-51704652D01*
X119068009Y-51718199D01*
X119082115Y-51735388D01*
X119092190Y-51754713D01*
X119098235Y-51776176D01*
X119100218Y-51796709D01*
X119100250Y-51799776D01*
X119098938Y-51821293D01*
X119095002Y-51841879D01*
X119088443Y-51861536D01*
X119079260Y-51880262D01*
X119067453Y-51898058D01*
X119053023Y-51914923D01*
X119046516Y-51921409D01*
X119029057Y-51936045D01*
X119010261Y-51948200D01*
X118990130Y-51957874D01*
X118968664Y-51965068D01*
X118945861Y-51969781D01*
X118921723Y-51972013D01*
X118911694Y-51972212D01*
X118889133Y-51971079D01*
X118867549Y-51967680D01*
X118846943Y-51962015D01*
X118827316Y-51954084D01*
X118808666Y-51943888D01*
X118790994Y-51931425D01*
X118784199Y-51925806D01*
X118768719Y-51910662D01*
X118755863Y-51894541D01*
X118745631Y-51877441D01*
X118738022Y-51859364D01*
X118733037Y-51840309D01*
X118730676Y-51820275D01*
X118730466Y-51811988D01*
X118731728Y-51790590D01*
X118735515Y-51769811D01*
X118741826Y-51749649D01*
X118750662Y-51730106D01*
X118762022Y-51711181D01*
X118775906Y-51692874D01*
X118792316Y-51675186D01*
X118811249Y-51658115D01*
X118832707Y-51641663D01*
X118856690Y-51625829D01*
X118874081Y-51615617D01*
X118892464Y-51605798D01*
X118911709Y-51596612D01*
X118931817Y-51588060D01*
X118952788Y-51580141D01*
X118974621Y-51572856D01*
X118997316Y-51566204D01*
X119020874Y-51560185D01*
X119045295Y-51554801D01*
X119070578Y-51550049D01*
X119096723Y-51545932D01*
X119123731Y-51542447D01*
X119151602Y-51539596D01*
X119180334Y-51537379D01*
X119209930Y-51535795D01*
X119240388Y-51534845D01*
X119271708Y-51534528D01*
X119296004Y-51534721D01*
G37*
G36*
X120533467Y-50784214D02*
G01*
X120533467Y-51799288D01*
X120538840Y-51799288D01*
X120555389Y-51767227D01*
X120573042Y-51737235D01*
X120591797Y-51709311D01*
X120611655Y-51683456D01*
X120632616Y-51659669D01*
X120654680Y-51637950D01*
X120677847Y-51618300D01*
X120702116Y-51600718D01*
X120727489Y-51585205D01*
X120753964Y-51571760D01*
X120781543Y-51560384D01*
X120810224Y-51551076D01*
X120840009Y-51543836D01*
X120870896Y-51538665D01*
X120902886Y-51535563D01*
X120935979Y-51534528D01*
X120958157Y-51535168D01*
X120980360Y-51537087D01*
X121002590Y-51540286D01*
X121024845Y-51544764D01*
X121047126Y-51550521D01*
X121069433Y-51557558D01*
X121091765Y-51565874D01*
X121114123Y-51575470D01*
X121136507Y-51586345D01*
X121158917Y-51598499D01*
X121173871Y-51607313D01*
X121195259Y-51622075D01*
X121214543Y-51639249D01*
X121231724Y-51658837D01*
X121246801Y-51680838D01*
X121259774Y-51705251D01*
X121270643Y-51732077D01*
X121276720Y-51751302D01*
X121281863Y-51771599D01*
X121286070Y-51792968D01*
X121289343Y-51815410D01*
X121291680Y-51838924D01*
X121293083Y-51863510D01*
X121293550Y-51889169D01*
X121293550Y-52566210D01*
X121449866Y-52566210D01*
X121449866Y-52660000D01*
X120761589Y-52660000D01*
X120761589Y-52566210D01*
X120918393Y-52566210D01*
X120918393Y-51814919D01*
X120917462Y-51787159D01*
X120914667Y-51762128D01*
X120910008Y-51739829D01*
X120903487Y-51720260D01*
X120891893Y-51698415D01*
X120876986Y-51681425D01*
X120858768Y-51669289D01*
X120837236Y-51662008D01*
X120812392Y-51659581D01*
X120789112Y-51660697D01*
X120766717Y-51664046D01*
X120745206Y-51669627D01*
X120724579Y-51677441D01*
X120704837Y-51687487D01*
X120685979Y-51699766D01*
X120668006Y-51714278D01*
X120650917Y-51731022D01*
X120634712Y-51749998D01*
X120619392Y-51771207D01*
X120609670Y-51786587D01*
X120596052Y-51809624D01*
X120583773Y-51831106D01*
X120572834Y-51851034D01*
X120563234Y-51869408D01*
X120552518Y-51891489D01*
X120544183Y-51910807D01*
X120537113Y-51931070D01*
X120533467Y-51952184D01*
X120533467Y-52566210D01*
X120694178Y-52566210D01*
X120694178Y-52660000D01*
X119999063Y-52660000D01*
X119999063Y-52566210D01*
X120158310Y-52566210D01*
X120158310Y-50909267D01*
X119988317Y-50909267D01*
X119988317Y-50815478D01*
X120139259Y-50815478D01*
X120161853Y-50815332D01*
X120184756Y-50814894D01*
X120207969Y-50814164D01*
X120231491Y-50813142D01*
X120255322Y-50811828D01*
X120279462Y-50810222D01*
X120303911Y-50808325D01*
X120328669Y-50806135D01*
X120353736Y-50803654D01*
X120379113Y-50800880D01*
X120396202Y-50798869D01*
X120490968Y-50784214D01*
X120533467Y-50784214D01*
G37*
M02*
