M48
; DRILL file {KiCad 7.0.2} date Tue Jun  6 14:02:08 2023
; FORMAT={-:-/ absolute / inch / decimal}
; #@! TF.CreationDate,2023-06-06T14:02:08-04:00
; #@! TF.GenerationSoftware,Kicad,Pcbnew,7.0.2
; #@! TF.FileFunction,NonPlated,1,2,NPTH
FMAT,2
INCH
; #@! TA.AperFunction,NonPlated,NPTH,ComponentDrill
T1C0.0591
; #@! TA.AperFunction,NonPlated,NPTH,ComponentDrill
T2C0.0689
; #@! TA.AperFunction,NonPlated,NPTH,ComponentDrill
T3C0.0709
; #@! TA.AperFunction,NonPlated,NPTH,ComponentDrill
T4C0.0866
; #@! TA.AperFunction,NonPlated,NPTH,ComponentDrill
T5C0.1570
%
G90
G05
T1
X5.1882Y-2.1652
X5.3791Y-2.1652
T2
X4.3459Y-3.384
X4.3463Y-4.1345
X4.3463Y-4.8861
X4.7459Y-3.384
X4.7463Y-4.1345
X4.7463Y-4.8861
X5.0963Y-3.3823
X5.0963Y-4.8844
X5.0974Y-4.1327
X5.4963Y-3.3823
X5.4963Y-4.8844
X5.4974Y-4.1327
X5.8462Y-3.3845
X5.8462Y-4.1345
X5.8463Y-4.8843
X6.2462Y-3.3845
X6.2462Y-4.1345
X6.2463Y-4.8843
T3
X5.1764Y-2.0459
X5.3909Y-2.0459
T4
X4.2323Y-2.0669
X4.2323Y-5.1969
X6.3583Y-2.0669
X6.3583Y-5.1969
T5
X4.5459Y-3.384
X4.5463Y-4.1345
X4.5463Y-4.8861
X5.2963Y-3.3823
X5.2963Y-4.8844
X5.2974Y-4.1327
X6.0462Y-3.3845
X6.0462Y-4.1345
X6.0463Y-4.8843
T0
M30
