%TF.GenerationSoftware,KiCad,Pcbnew,7.0.2*%
%TF.CreationDate,2023-06-06T14:02:04-04:00*%
%TF.ProjectId,Goufi_v1,476f7566-695f-4763-912e-6b696361645f,rev?*%
%TF.SameCoordinates,Original*%
%TF.FileFunction,Legend,Bot*%
%TF.FilePolarity,Positive*%
%FSLAX46Y46*%
G04 Gerber Fmt 4.6, Leading zero omitted, Abs format (unit mm)*
G04 Created by KiCad (PCBNEW 7.0.2) date 2023-06-06 14:02:04*
%MOMM*%
%LPD*%
G01*
G04 APERTURE LIST*
%ADD10C,0.150000*%
%ADD11C,0.127000*%
%ADD12C,0.200000*%
%ADD13C,0.120000*%
G04 APERTURE END LIST*
D10*
G36*
X119748456Y-50815478D02*
G01*
X119740152Y-51284424D01*
X119804632Y-51284424D01*
X119813417Y-51257496D01*
X119822612Y-51231423D01*
X119832219Y-51206205D01*
X119842238Y-51181842D01*
X119852667Y-51158333D01*
X119863508Y-51135680D01*
X119874760Y-51113881D01*
X119886423Y-51092937D01*
X119898497Y-51072848D01*
X119910983Y-51053614D01*
X119923879Y-51035235D01*
X119937187Y-51017711D01*
X119950906Y-51001041D01*
X119965037Y-50985226D01*
X119979578Y-50970266D01*
X119994531Y-50956161D01*
X120009895Y-50942911D01*
X120025670Y-50930516D01*
X120041856Y-50918975D01*
X120058454Y-50908290D01*
X120075462Y-50898459D01*
X120092882Y-50889483D01*
X120110714Y-50881362D01*
X120128956Y-50874096D01*
X120147609Y-50867684D01*
X120166674Y-50862128D01*
X120186150Y-50857426D01*
X120206037Y-50853579D01*
X120226336Y-50850587D01*
X120247045Y-50848450D01*
X120268166Y-50847168D01*
X120289698Y-50846741D01*
X120313420Y-50847157D01*
X120336471Y-50848405D01*
X120358850Y-50850484D01*
X120380557Y-50853396D01*
X120401592Y-50857140D01*
X120421956Y-50861716D01*
X120441648Y-50867123D01*
X120460668Y-50873363D01*
X120479017Y-50880435D01*
X120505281Y-50892602D01*
X120530033Y-50906641D01*
X120553274Y-50922552D01*
X120575004Y-50940335D01*
X120588651Y-50953230D01*
X120607682Y-50973266D01*
X120624841Y-50993439D01*
X120640129Y-51013749D01*
X120653544Y-51034197D01*
X120665087Y-51054782D01*
X120674759Y-51075505D01*
X120682558Y-51096364D01*
X120688486Y-51117362D01*
X120692542Y-51138496D01*
X120694725Y-51159768D01*
X120695141Y-51174026D01*
X120694364Y-51193622D01*
X120690911Y-51218882D01*
X120684694Y-51243150D01*
X120675714Y-51266426D01*
X120663971Y-51288709D01*
X120649466Y-51310000D01*
X120636773Y-51325317D01*
X120622526Y-51340076D01*
X120606725Y-51354277D01*
X120588772Y-51367877D01*
X120568251Y-51380833D01*
X120545163Y-51393145D01*
X120519508Y-51404813D01*
X120500978Y-51412233D01*
X120481307Y-51419368D01*
X120460495Y-51426216D01*
X120438541Y-51432778D01*
X120415447Y-51439054D01*
X120391212Y-51445044D01*
X120365835Y-51450747D01*
X120339318Y-51456165D01*
X120311659Y-51461296D01*
X120282859Y-51466140D01*
X120253928Y-51470922D01*
X120225875Y-51475864D01*
X120198699Y-51480967D01*
X120172401Y-51486229D01*
X120146980Y-51491652D01*
X120122438Y-51497236D01*
X120098773Y-51502979D01*
X120075986Y-51508883D01*
X120054076Y-51514947D01*
X120033045Y-51521171D01*
X120012891Y-51527556D01*
X119993615Y-51534101D01*
X119975216Y-51540806D01*
X119949265Y-51551165D01*
X119925288Y-51561884D01*
X119902546Y-51573461D01*
X119880483Y-51586396D01*
X119859098Y-51600687D01*
X119838391Y-51616335D01*
X119818362Y-51633339D01*
X119799012Y-51651700D01*
X119780341Y-51671418D01*
X119762347Y-51692493D01*
X119745032Y-51714924D01*
X119728396Y-51738712D01*
X119717681Y-51755324D01*
X119707448Y-51772331D01*
X119697875Y-51789648D01*
X119688962Y-51807273D01*
X119680709Y-51825208D01*
X119673117Y-51843452D01*
X119666184Y-51862005D01*
X119659912Y-51880867D01*
X119654300Y-51900038D01*
X119649349Y-51919518D01*
X119645057Y-51939308D01*
X119641426Y-51959406D01*
X119638455Y-51979814D01*
X119636144Y-52000530D01*
X119634494Y-52021556D01*
X119633504Y-52042891D01*
X119633173Y-52064535D01*
X119633864Y-52097827D01*
X119635936Y-52130412D01*
X119639390Y-52162292D01*
X119644225Y-52193465D01*
X119650442Y-52223933D01*
X119658040Y-52253694D01*
X119667020Y-52282749D01*
X119677381Y-52311099D01*
X119689124Y-52338742D01*
X119702248Y-52365679D01*
X119716754Y-52391911D01*
X119732641Y-52417436D01*
X119749910Y-52442255D01*
X119768560Y-52466368D01*
X119788592Y-52489776D01*
X119810005Y-52512477D01*
X119832378Y-52534127D01*
X119855412Y-52554380D01*
X119879105Y-52573236D01*
X119903459Y-52590696D01*
X119928473Y-52606758D01*
X119954147Y-52621424D01*
X119980481Y-52634694D01*
X120007476Y-52646566D01*
X120035130Y-52657042D01*
X120063445Y-52666121D01*
X120092421Y-52673803D01*
X120122056Y-52680088D01*
X120152352Y-52684977D01*
X120183308Y-52688469D01*
X120214924Y-52690564D01*
X120247200Y-52691263D01*
X120273817Y-52690690D01*
X120300422Y-52688973D01*
X120327016Y-52686111D01*
X120353598Y-52682103D01*
X120380169Y-52676951D01*
X120406729Y-52670655D01*
X120433277Y-52663213D01*
X120459813Y-52654626D01*
X120486339Y-52644895D01*
X120512852Y-52634018D01*
X120539355Y-52621997D01*
X120565845Y-52608831D01*
X120592325Y-52594520D01*
X120618793Y-52579064D01*
X120645249Y-52562463D01*
X120671694Y-52544717D01*
X120800654Y-52660000D01*
X120849014Y-52660000D01*
X120849014Y-52128527D01*
X120789908Y-52128527D01*
X120779520Y-52159244D01*
X120768628Y-52188992D01*
X120757232Y-52217771D01*
X120745333Y-52245580D01*
X120732930Y-52272420D01*
X120720024Y-52298291D01*
X120706613Y-52323192D01*
X120692699Y-52347124D01*
X120678281Y-52370087D01*
X120663359Y-52392080D01*
X120647934Y-52413104D01*
X120632005Y-52433159D01*
X120615572Y-52452244D01*
X120598635Y-52470360D01*
X120581194Y-52487507D01*
X120563250Y-52503684D01*
X120544945Y-52518827D01*
X120526423Y-52532993D01*
X120507683Y-52546182D01*
X120488726Y-52558394D01*
X120469551Y-52569630D01*
X120450158Y-52579888D01*
X120430548Y-52589169D01*
X120410721Y-52597473D01*
X120390675Y-52604801D01*
X120370413Y-52611151D01*
X120349933Y-52616524D01*
X120329235Y-52620921D01*
X120308320Y-52624340D01*
X120287187Y-52626782D01*
X120265837Y-52628248D01*
X120244269Y-52628736D01*
X120222946Y-52628296D01*
X120201840Y-52626973D01*
X120180951Y-52624769D01*
X120160280Y-52621684D01*
X120139827Y-52617717D01*
X120119591Y-52612868D01*
X120099572Y-52607138D01*
X120079772Y-52600526D01*
X120060188Y-52593033D01*
X120040822Y-52584658D01*
X120021674Y-52575402D01*
X120002743Y-52565264D01*
X119984030Y-52554244D01*
X119965535Y-52542343D01*
X119947256Y-52529560D01*
X119929196Y-52515896D01*
X119911805Y-52501497D01*
X119895536Y-52486633D01*
X119880389Y-52471303D01*
X119866364Y-52455507D01*
X119853461Y-52439246D01*
X119841681Y-52422519D01*
X119831022Y-52405327D01*
X119821485Y-52387669D01*
X119813070Y-52369545D01*
X119805777Y-52350956D01*
X119799606Y-52331901D01*
X119794557Y-52312381D01*
X119790630Y-52292395D01*
X119787825Y-52271943D01*
X119786142Y-52251026D01*
X119785581Y-52229644D01*
X119786457Y-52202757D01*
X119789084Y-52176687D01*
X119793464Y-52151432D01*
X119799594Y-52126993D01*
X119807477Y-52103370D01*
X119817111Y-52080562D01*
X119828497Y-52058570D01*
X119841635Y-52037394D01*
X119856524Y-52017034D01*
X119873165Y-51997489D01*
X119885232Y-51984912D01*
X119905003Y-51966790D01*
X119926946Y-51949793D01*
X119951062Y-51933920D01*
X119968346Y-51923964D01*
X119986595Y-51914507D01*
X120005810Y-51905550D01*
X120025991Y-51897093D01*
X120047137Y-51889136D01*
X120069249Y-51881679D01*
X120092326Y-51874722D01*
X120116368Y-51868265D01*
X120141377Y-51862308D01*
X120167350Y-51856850D01*
X120194289Y-51851893D01*
X120208121Y-51849602D01*
X120235621Y-51845089D01*
X120262313Y-51840466D01*
X120288195Y-51835731D01*
X120313268Y-51830887D01*
X120337532Y-51825931D01*
X120360987Y-51820865D01*
X120383633Y-51815688D01*
X120405469Y-51810401D01*
X120426497Y-51805003D01*
X120446716Y-51799494D01*
X120466126Y-51793874D01*
X120493723Y-51785238D01*
X120519500Y-51776352D01*
X120543457Y-51767217D01*
X120551038Y-51764117D01*
X120573090Y-51754130D01*
X120594550Y-51742856D01*
X120615417Y-51730294D01*
X120635691Y-51716444D01*
X120655373Y-51701305D01*
X120674463Y-51684879D01*
X120692960Y-51667165D01*
X120710865Y-51648162D01*
X120728177Y-51627872D01*
X120744896Y-51606294D01*
X120755714Y-51591193D01*
X120770903Y-51567788D01*
X120784599Y-51543920D01*
X120796801Y-51519589D01*
X120807508Y-51494793D01*
X120816722Y-51469534D01*
X120824441Y-51443811D01*
X120830667Y-51417625D01*
X120835398Y-51390975D01*
X120838635Y-51363861D01*
X120840378Y-51336283D01*
X120840710Y-51317641D01*
X120840130Y-51291866D01*
X120838390Y-51266441D01*
X120835489Y-51241368D01*
X120831429Y-51216646D01*
X120826208Y-51192276D01*
X120819827Y-51168256D01*
X120812286Y-51144587D01*
X120803585Y-51121270D01*
X120793724Y-51098303D01*
X120782702Y-51075688D01*
X120770521Y-51053423D01*
X120757179Y-51031510D01*
X120742677Y-51009948D01*
X120727015Y-50988737D01*
X120710193Y-50967877D01*
X120692210Y-50947369D01*
X120673236Y-50927612D01*
X120653437Y-50909129D01*
X120632814Y-50891922D01*
X120611366Y-50875989D01*
X120589094Y-50861330D01*
X120565998Y-50847947D01*
X120542077Y-50835837D01*
X120517333Y-50825003D01*
X120491763Y-50815443D01*
X120465370Y-50807158D01*
X120438152Y-50800147D01*
X120410110Y-50794412D01*
X120381244Y-50789950D01*
X120351553Y-50786764D01*
X120321038Y-50784852D01*
X120289698Y-50784214D01*
X120263188Y-50784777D01*
X120236904Y-50786466D01*
X120210844Y-50789281D01*
X120185010Y-50793221D01*
X120159400Y-50798287D01*
X120134016Y-50804479D01*
X120108857Y-50811797D01*
X120083924Y-50820240D01*
X120059215Y-50829810D01*
X120034732Y-50840505D01*
X120010473Y-50852326D01*
X119986440Y-50865273D01*
X119962632Y-50879345D01*
X119939049Y-50894544D01*
X119915692Y-50910868D01*
X119892559Y-50928318D01*
X119877018Y-50912812D01*
X119862144Y-50896518D01*
X119847937Y-50879438D01*
X119834399Y-50861571D01*
X119821529Y-50842916D01*
X119809326Y-50823475D01*
X119804632Y-50815478D01*
X119748456Y-50815478D01*
G37*
G36*
X118820793Y-51534813D02*
G01*
X118848307Y-51535666D01*
X118875030Y-51537087D01*
X118900964Y-51539077D01*
X118926108Y-51541636D01*
X118950461Y-51544764D01*
X118974025Y-51548460D01*
X118996799Y-51552725D01*
X119018782Y-51557558D01*
X119039976Y-51562960D01*
X119060380Y-51568930D01*
X119079994Y-51575470D01*
X119098818Y-51582578D01*
X119125572Y-51594305D01*
X119150550Y-51607313D01*
X119173509Y-51621260D01*
X119194210Y-51635809D01*
X119212653Y-51650959D01*
X119228837Y-51666710D01*
X119242763Y-51683062D01*
X119254431Y-51700014D01*
X119263841Y-51717568D01*
X119272874Y-51741909D01*
X119277892Y-51767318D01*
X119279021Y-51787076D01*
X119278510Y-51799211D01*
X119275154Y-51819494D01*
X119268666Y-51838561D01*
X119259045Y-51856413D01*
X119246293Y-51873049D01*
X119232875Y-51885500D01*
X119214789Y-51896770D01*
X119194086Y-51904533D01*
X119174256Y-51908397D01*
X119152504Y-51909685D01*
X119146739Y-51909575D01*
X119127134Y-51907444D01*
X119105816Y-51901689D01*
X119085659Y-51892393D01*
X119068972Y-51881353D01*
X119060271Y-51873751D01*
X119047836Y-51858538D01*
X119038954Y-51840893D01*
X119033624Y-51820817D01*
X119031848Y-51798311D01*
X119032011Y-51791252D01*
X119034458Y-51771108D01*
X119040621Y-51750538D01*
X119050410Y-51731877D01*
X119058531Y-51717772D01*
X119065909Y-51699374D01*
X119068972Y-51679120D01*
X119063534Y-51655478D01*
X119051353Y-51639450D01*
X119032210Y-51625986D01*
X119013285Y-51617571D01*
X118990445Y-51610599D01*
X118963689Y-51605069D01*
X118943676Y-51602184D01*
X118921923Y-51599940D01*
X118898430Y-51598337D01*
X118873197Y-51597375D01*
X118846223Y-51597055D01*
X118831149Y-51597274D01*
X118809940Y-51598426D01*
X118784279Y-51601498D01*
X118761610Y-51606326D01*
X118741933Y-51612909D01*
X118721545Y-51623606D01*
X118705831Y-51637047D01*
X118694792Y-51653230D01*
X118689729Y-51664758D01*
X118683753Y-51683508D01*
X118678662Y-51706119D01*
X118675425Y-51725612D01*
X118672686Y-51747278D01*
X118670444Y-51771116D01*
X118668701Y-51797126D01*
X118667456Y-51825309D01*
X118666903Y-51845305D01*
X118666571Y-51866266D01*
X118666460Y-51888192D01*
X118666460Y-52034738D01*
X118708866Y-52037126D01*
X118749925Y-52040140D01*
X118789637Y-52043778D01*
X118828004Y-52048041D01*
X118865024Y-52052930D01*
X118900699Y-52058443D01*
X118935027Y-52064581D01*
X118968009Y-52071344D01*
X118999644Y-52078732D01*
X119029934Y-52086744D01*
X119058877Y-52095382D01*
X119086474Y-52104645D01*
X119112725Y-52114532D01*
X119137630Y-52125045D01*
X119161188Y-52136182D01*
X119183400Y-52147944D01*
X119204266Y-52160332D01*
X119223786Y-52173344D01*
X119241960Y-52186981D01*
X119258787Y-52201243D01*
X119274269Y-52216130D01*
X119288404Y-52231641D01*
X119301193Y-52247778D01*
X119312635Y-52264540D01*
X119322732Y-52281926D01*
X119331482Y-52299938D01*
X119338886Y-52318574D01*
X119344944Y-52337836D01*
X119349656Y-52357722D01*
X119353021Y-52378233D01*
X119355040Y-52399369D01*
X119355714Y-52421130D01*
X119355382Y-52435218D01*
X119353638Y-52455827D01*
X119350401Y-52475810D01*
X119345670Y-52495166D01*
X119339445Y-52513895D01*
X119331725Y-52531997D01*
X119322512Y-52549472D01*
X119311804Y-52566320D01*
X119299603Y-52582542D01*
X119285907Y-52598137D01*
X119270717Y-52613105D01*
X119259808Y-52622569D01*
X119242608Y-52635621D01*
X119224403Y-52647299D01*
X119205193Y-52657603D01*
X119184978Y-52666533D01*
X119163759Y-52674089D01*
X119141536Y-52680272D01*
X119118307Y-52685080D01*
X119094074Y-52688515D01*
X119068837Y-52690576D01*
X119042594Y-52691263D01*
X119015880Y-52690404D01*
X118989594Y-52687828D01*
X118963734Y-52683535D01*
X118938303Y-52677524D01*
X118913298Y-52669796D01*
X118888721Y-52660351D01*
X118864572Y-52649188D01*
X118840850Y-52636308D01*
X118817555Y-52621711D01*
X118794688Y-52605396D01*
X118772248Y-52587364D01*
X118750236Y-52567615D01*
X118728651Y-52546148D01*
X118707493Y-52522964D01*
X118686763Y-52498063D01*
X118666460Y-52471444D01*
X118661219Y-52498063D01*
X118654775Y-52522964D01*
X118647129Y-52546148D01*
X118638281Y-52567615D01*
X118628231Y-52587364D01*
X118616978Y-52605396D01*
X118604524Y-52621711D01*
X118590867Y-52636308D01*
X118576008Y-52649188D01*
X118559948Y-52660351D01*
X118542684Y-52669796D01*
X118524219Y-52677524D01*
X118504552Y-52683535D01*
X118483683Y-52687828D01*
X118461611Y-52690404D01*
X118438337Y-52691263D01*
X118414241Y-52690530D01*
X118391412Y-52688332D01*
X118369850Y-52684668D01*
X118349555Y-52679539D01*
X118330527Y-52672944D01*
X118304361Y-52660305D01*
X118281045Y-52644368D01*
X118260580Y-52625134D01*
X118242966Y-52602602D01*
X118232807Y-52585750D01*
X118223915Y-52567431D01*
X118216290Y-52547648D01*
X118209932Y-52526399D01*
X118204841Y-52503684D01*
X118237570Y-52503684D01*
X118246384Y-52514858D01*
X118261170Y-52531039D01*
X118276075Y-52544167D01*
X118294118Y-52555891D01*
X118312333Y-52563218D01*
X118333802Y-52566210D01*
X118350898Y-52563969D01*
X118369605Y-52554009D01*
X118382650Y-52537878D01*
X118387962Y-52524197D01*
X118392176Y-52504402D01*
X118394847Y-52483235D01*
X118396435Y-52463246D01*
X118397534Y-52440539D01*
X118398144Y-52415115D01*
X118398282Y-52394263D01*
X118398282Y-52097264D01*
X118666460Y-52097264D01*
X118666460Y-52247718D01*
X118666804Y-52271371D01*
X118667834Y-52293727D01*
X118669551Y-52314785D01*
X118671956Y-52334546D01*
X118675927Y-52357422D01*
X118680972Y-52378271D01*
X118688442Y-52400614D01*
X118694617Y-52414528D01*
X118704246Y-52431899D01*
X118715998Y-52449247D01*
X118729872Y-52466570D01*
X118745870Y-52483870D01*
X118760196Y-52497692D01*
X118775881Y-52511500D01*
X118784065Y-52518125D01*
X118800811Y-52530093D01*
X118818061Y-52540351D01*
X118835814Y-52548900D01*
X118858714Y-52557181D01*
X118882401Y-52562791D01*
X118901918Y-52565355D01*
X118921938Y-52566210D01*
X118941285Y-52564958D01*
X118963587Y-52560149D01*
X118984893Y-52551735D01*
X119001888Y-52541967D01*
X119018190Y-52529695D01*
X119033802Y-52514919D01*
X119047874Y-52497724D01*
X119059562Y-52478502D01*
X119068864Y-52457253D01*
X119075781Y-52433976D01*
X119079597Y-52413894D01*
X119081887Y-52392515D01*
X119082650Y-52369839D01*
X119082333Y-52354078D01*
X119080670Y-52331323D01*
X119077582Y-52309633D01*
X119073068Y-52289008D01*
X119067129Y-52269448D01*
X119059765Y-52250952D01*
X119047728Y-52227947D01*
X119033158Y-52206836D01*
X119016053Y-52187617D01*
X119001561Y-52174445D01*
X118984838Y-52162312D01*
X118965074Y-52151192D01*
X118942271Y-52141086D01*
X118916428Y-52131992D01*
X118897510Y-52126493D01*
X118877242Y-52121444D01*
X118855623Y-52116845D01*
X118832652Y-52112697D01*
X118808331Y-52108999D01*
X118782659Y-52105751D01*
X118755636Y-52102954D01*
X118727261Y-52100607D01*
X118697536Y-52098710D01*
X118666460Y-52097264D01*
X118398282Y-52097264D01*
X118398282Y-51872072D01*
X118398301Y-51864676D01*
X118398595Y-51843122D01*
X118399240Y-51822521D01*
X118400648Y-51796536D01*
X118402682Y-51772245D01*
X118405342Y-51749649D01*
X118408628Y-51728747D01*
X118412540Y-51709539D01*
X118418310Y-51687913D01*
X118426154Y-51667982D01*
X118437172Y-51649101D01*
X118451361Y-51631270D01*
X118468723Y-51614487D01*
X118484896Y-51601817D01*
X118503100Y-51589819D01*
X118523334Y-51578492D01*
X118546133Y-51568188D01*
X118565265Y-51561362D01*
X118586141Y-51555308D01*
X118608759Y-51550027D01*
X118633121Y-51545519D01*
X118659226Y-51541784D01*
X118687074Y-51538822D01*
X118706608Y-51537276D01*
X118726916Y-51536074D01*
X118747999Y-51535215D01*
X118769857Y-51534700D01*
X118792490Y-51534528D01*
X118820793Y-51534813D01*
G37*
G36*
X117848247Y-52597473D02*
G01*
X117848247Y-51628318D01*
X118043153Y-51628318D01*
X118043153Y-51565792D01*
X117918100Y-51565792D01*
X117895033Y-51565669D01*
X117872236Y-51565303D01*
X117849710Y-51564692D01*
X117827456Y-51563838D01*
X117805472Y-51562739D01*
X117783759Y-51561395D01*
X117762317Y-51559808D01*
X117741146Y-51557976D01*
X117720246Y-51555900D01*
X117699617Y-51553579D01*
X117679259Y-51551015D01*
X117659172Y-51548206D01*
X117639356Y-51545153D01*
X117619811Y-51541856D01*
X117600537Y-51538314D01*
X117581534Y-51534528D01*
X117581534Y-51802707D01*
X117576160Y-51802707D01*
X117557997Y-51770232D01*
X117538921Y-51739853D01*
X117518933Y-51711568D01*
X117498033Y-51685379D01*
X117476221Y-51661285D01*
X117453497Y-51639286D01*
X117429861Y-51619382D01*
X117405312Y-51601573D01*
X117379852Y-51585860D01*
X117353479Y-51572241D01*
X117326195Y-51560718D01*
X117297998Y-51551290D01*
X117268889Y-51543957D01*
X117238868Y-51538719D01*
X117207935Y-51535576D01*
X117176090Y-51534528D01*
X117153845Y-51535082D01*
X117132356Y-51536744D01*
X117111622Y-51539513D01*
X117091643Y-51543390D01*
X117072421Y-51548374D01*
X117047966Y-51556744D01*
X117024854Y-51567082D01*
X117003086Y-51579389D01*
X116982662Y-51593666D01*
X116977765Y-51597543D01*
X116959126Y-51613648D01*
X116942045Y-51630455D01*
X116926520Y-51647964D01*
X116912552Y-51666175D01*
X116900142Y-51685089D01*
X116889288Y-51704705D01*
X116879992Y-51725023D01*
X116872252Y-51746043D01*
X116865612Y-51768757D01*
X116859857Y-51794403D01*
X116856122Y-51815560D01*
X116852885Y-51838367D01*
X116850145Y-51862821D01*
X116847904Y-51888925D01*
X116846161Y-51916677D01*
X116844916Y-51946078D01*
X116844363Y-51966594D01*
X116844031Y-51987843D01*
X116843920Y-52009825D01*
X116843920Y-52597473D01*
X116629475Y-52597473D01*
X116629475Y-52660000D01*
X117294792Y-52660000D01*
X117294792Y-52597473D01*
X117112099Y-52597473D01*
X117112099Y-51885750D01*
X117112177Y-51865689D01*
X117112588Y-51837080D01*
X117113351Y-51810248D01*
X117114465Y-51785194D01*
X117115932Y-51761917D01*
X117117751Y-51740417D01*
X117119922Y-51720695D01*
X117123365Y-51697164D01*
X117127433Y-51676792D01*
X117132127Y-51659581D01*
X117139807Y-51641568D01*
X117153179Y-51623982D01*
X117171085Y-51610793D01*
X117189470Y-51603161D01*
X117211004Y-51598581D01*
X117230497Y-51597116D01*
X117235686Y-51597055D01*
X117260367Y-51598261D01*
X117284584Y-51601880D01*
X117308337Y-51607912D01*
X117331627Y-51616357D01*
X117354454Y-51627215D01*
X117376816Y-51640486D01*
X117398715Y-51656170D01*
X117420150Y-51674266D01*
X117441122Y-51694775D01*
X117454845Y-51709788D01*
X117468362Y-51725874D01*
X117475044Y-51734319D01*
X117487939Y-51751847D01*
X117500002Y-51770116D01*
X117511234Y-51789125D01*
X117521633Y-51808874D01*
X117531200Y-51829364D01*
X117539936Y-51850594D01*
X117547839Y-51872564D01*
X117554911Y-51895275D01*
X117561151Y-51918726D01*
X117566558Y-51942918D01*
X117571134Y-51967850D01*
X117574878Y-51993522D01*
X117577790Y-52019934D01*
X117579870Y-52047087D01*
X117581118Y-52074981D01*
X117581534Y-52103614D01*
X117581534Y-52597473D01*
X117401771Y-52597473D01*
X117401771Y-52660000D01*
X118043153Y-52660000D01*
X118043153Y-52597473D01*
X117848247Y-52597473D01*
G37*
G36*
X115932866Y-51534813D02*
G01*
X115960379Y-51535666D01*
X115987103Y-51537087D01*
X116013037Y-51539077D01*
X116038180Y-51541636D01*
X116062534Y-51544764D01*
X116086098Y-51548460D01*
X116108871Y-51552725D01*
X116130855Y-51557558D01*
X116152049Y-51562960D01*
X116172453Y-51568930D01*
X116192067Y-51575470D01*
X116210890Y-51582578D01*
X116237645Y-51594305D01*
X116262622Y-51607313D01*
X116285581Y-51621260D01*
X116306282Y-51635809D01*
X116324725Y-51650959D01*
X116340910Y-51666710D01*
X116354836Y-51683062D01*
X116366504Y-51700014D01*
X116375913Y-51717568D01*
X116384946Y-51741909D01*
X116389965Y-51767318D01*
X116391094Y-51787076D01*
X116390583Y-51799211D01*
X116387227Y-51819494D01*
X116380738Y-51838561D01*
X116371118Y-51856413D01*
X116358365Y-51873049D01*
X116344947Y-51885500D01*
X116326862Y-51896770D01*
X116306158Y-51904533D01*
X116286329Y-51908397D01*
X116264576Y-51909685D01*
X116258812Y-51909575D01*
X116239207Y-51907444D01*
X116217889Y-51901689D01*
X116197731Y-51892393D01*
X116181045Y-51881353D01*
X116172344Y-51873751D01*
X116159909Y-51858538D01*
X116151026Y-51840893D01*
X116145697Y-51820817D01*
X116143920Y-51798311D01*
X116144083Y-51791252D01*
X116146531Y-51771108D01*
X116152694Y-51750538D01*
X116162483Y-51731877D01*
X116170604Y-51717772D01*
X116177982Y-51699374D01*
X116181045Y-51679120D01*
X116175607Y-51655478D01*
X116163425Y-51639450D01*
X116144283Y-51625986D01*
X116125358Y-51617571D01*
X116102517Y-51610599D01*
X116075761Y-51605069D01*
X116055748Y-51602184D01*
X116033996Y-51599940D01*
X116010503Y-51598337D01*
X115985269Y-51597375D01*
X115958296Y-51597055D01*
X115943221Y-51597274D01*
X115922012Y-51598426D01*
X115896351Y-51601498D01*
X115873683Y-51606326D01*
X115854006Y-51612909D01*
X115833617Y-51623606D01*
X115817904Y-51637047D01*
X115806865Y-51653230D01*
X115801802Y-51664758D01*
X115795825Y-51683508D01*
X115790735Y-51706119D01*
X115787497Y-51725612D01*
X115784758Y-51747278D01*
X115782517Y-51771116D01*
X115780774Y-51797126D01*
X115779529Y-51825309D01*
X115778976Y-51845305D01*
X115778644Y-51866266D01*
X115778533Y-51888192D01*
X115778533Y-52034738D01*
X115820938Y-52037126D01*
X115861997Y-52040140D01*
X115901710Y-52043778D01*
X115940077Y-52048041D01*
X115977097Y-52052930D01*
X116012771Y-52058443D01*
X116047099Y-52064581D01*
X116080081Y-52071344D01*
X116111717Y-52078732D01*
X116142006Y-52086744D01*
X116170950Y-52095382D01*
X116198547Y-52104645D01*
X116224797Y-52114532D01*
X116249702Y-52125045D01*
X116273261Y-52136182D01*
X116295473Y-52147944D01*
X116316339Y-52160332D01*
X116335859Y-52173344D01*
X116354032Y-52186981D01*
X116370860Y-52201243D01*
X116386341Y-52216130D01*
X116400476Y-52231641D01*
X116413265Y-52247778D01*
X116424708Y-52264540D01*
X116434804Y-52281926D01*
X116443555Y-52299938D01*
X116450959Y-52318574D01*
X116457017Y-52337836D01*
X116461728Y-52357722D01*
X116465094Y-52378233D01*
X116467113Y-52399369D01*
X116467786Y-52421130D01*
X116467454Y-52435218D01*
X116465711Y-52455827D01*
X116462474Y-52475810D01*
X116457743Y-52495166D01*
X116451517Y-52513895D01*
X116443798Y-52531997D01*
X116434584Y-52549472D01*
X116423877Y-52566320D01*
X116411675Y-52582542D01*
X116397979Y-52598137D01*
X116382790Y-52613105D01*
X116371881Y-52622569D01*
X116354680Y-52635621D01*
X116336475Y-52647299D01*
X116317265Y-52657603D01*
X116297051Y-52666533D01*
X116275832Y-52674089D01*
X116253608Y-52680272D01*
X116230380Y-52685080D01*
X116206147Y-52688515D01*
X116180909Y-52690576D01*
X116154667Y-52691263D01*
X116127953Y-52690404D01*
X116101666Y-52687828D01*
X116075807Y-52683535D01*
X116050375Y-52677524D01*
X116025371Y-52669796D01*
X116000794Y-52660351D01*
X115976644Y-52649188D01*
X115952922Y-52636308D01*
X115929628Y-52621711D01*
X115906760Y-52605396D01*
X115884321Y-52587364D01*
X115862308Y-52567615D01*
X115840723Y-52546148D01*
X115819566Y-52522964D01*
X115798836Y-52498063D01*
X115778533Y-52471444D01*
X115773291Y-52498063D01*
X115766847Y-52522964D01*
X115759201Y-52546148D01*
X115750353Y-52567615D01*
X115740303Y-52587364D01*
X115729051Y-52605396D01*
X115716596Y-52621711D01*
X115702940Y-52636308D01*
X115688081Y-52649188D01*
X115672020Y-52660351D01*
X115654757Y-52669796D01*
X115636292Y-52677524D01*
X115616625Y-52683535D01*
X115595755Y-52687828D01*
X115573684Y-52690404D01*
X115550410Y-52691263D01*
X115526314Y-52690530D01*
X115503485Y-52688332D01*
X115481923Y-52684668D01*
X115461628Y-52679539D01*
X115442600Y-52672944D01*
X115416433Y-52660305D01*
X115393118Y-52644368D01*
X115372653Y-52625134D01*
X115355039Y-52602602D01*
X115344880Y-52585750D01*
X115335988Y-52567431D01*
X115328363Y-52547648D01*
X115322005Y-52526399D01*
X115316914Y-52503684D01*
X115349642Y-52503684D01*
X115358457Y-52514858D01*
X115373242Y-52531039D01*
X115388147Y-52544167D01*
X115406191Y-52555891D01*
X115424406Y-52563218D01*
X115445874Y-52566210D01*
X115462970Y-52563969D01*
X115481678Y-52554009D01*
X115494723Y-52537878D01*
X115500035Y-52524197D01*
X115504248Y-52504402D01*
X115506920Y-52483235D01*
X115508507Y-52463246D01*
X115509606Y-52440539D01*
X115510217Y-52415115D01*
X115510354Y-52394263D01*
X115510354Y-52097264D01*
X115778533Y-52097264D01*
X115778533Y-52247718D01*
X115778876Y-52271371D01*
X115779907Y-52293727D01*
X115781624Y-52314785D01*
X115784028Y-52334546D01*
X115788000Y-52357422D01*
X115793044Y-52378271D01*
X115800515Y-52400614D01*
X115806689Y-52414528D01*
X115816318Y-52431899D01*
X115828070Y-52449247D01*
X115841945Y-52466570D01*
X115857942Y-52483870D01*
X115872269Y-52497692D01*
X115887954Y-52511500D01*
X115896138Y-52518125D01*
X115912884Y-52530093D01*
X115930133Y-52540351D01*
X115947887Y-52548900D01*
X115970787Y-52557181D01*
X115994474Y-52562791D01*
X116013991Y-52565355D01*
X116034011Y-52566210D01*
X116053357Y-52564958D01*
X116075660Y-52560149D01*
X116096966Y-52551735D01*
X116113960Y-52541967D01*
X116130263Y-52529695D01*
X116145874Y-52514919D01*
X116159947Y-52497724D01*
X116171634Y-52478502D01*
X116180936Y-52457253D01*
X116187853Y-52433976D01*
X116191670Y-52413894D01*
X116193959Y-52392515D01*
X116194723Y-52369839D01*
X116194406Y-52354078D01*
X116192743Y-52331323D01*
X116189655Y-52309633D01*
X116185141Y-52289008D01*
X116179202Y-52269448D01*
X116171837Y-52250952D01*
X116159801Y-52227947D01*
X116145230Y-52206836D01*
X116128125Y-52187617D01*
X116113634Y-52174445D01*
X116096910Y-52162312D01*
X116077146Y-52151192D01*
X116054343Y-52141086D01*
X116028500Y-52131992D01*
X116009583Y-52126493D01*
X115989314Y-52121444D01*
X115967695Y-52116845D01*
X115944725Y-52112697D01*
X115920404Y-52108999D01*
X115894731Y-52105751D01*
X115867708Y-52102954D01*
X115839334Y-52100607D01*
X115809609Y-52098710D01*
X115778533Y-52097264D01*
X115510354Y-52097264D01*
X115510354Y-51872072D01*
X115510374Y-51864676D01*
X115510667Y-51843122D01*
X115511313Y-51822521D01*
X115512721Y-51796536D01*
X115514755Y-51772245D01*
X115517415Y-51749649D01*
X115520701Y-51728747D01*
X115524612Y-51709539D01*
X115530382Y-51687913D01*
X115538227Y-51667982D01*
X115549244Y-51649101D01*
X115563434Y-51631270D01*
X115580795Y-51614487D01*
X115596969Y-51601817D01*
X115615173Y-51589819D01*
X115635407Y-51578492D01*
X115658205Y-51568188D01*
X115677338Y-51561362D01*
X115698213Y-51555308D01*
X115720832Y-51550027D01*
X115745194Y-51545519D01*
X115771299Y-51541784D01*
X115799147Y-51538822D01*
X115818680Y-51537276D01*
X115838989Y-51536074D01*
X115860072Y-51535215D01*
X115881930Y-51534700D01*
X115904562Y-51534528D01*
X115932866Y-51534813D01*
G37*
G36*
X114380487Y-51565792D02*
G01*
X114380487Y-51878422D01*
X114436663Y-51878422D01*
X114445249Y-51844351D01*
X114455256Y-51812477D01*
X114466682Y-51782801D01*
X114479527Y-51755324D01*
X114493793Y-51730045D01*
X114509478Y-51706964D01*
X114526582Y-51686081D01*
X114545106Y-51667397D01*
X114565050Y-51650910D01*
X114586414Y-51636622D01*
X114609197Y-51624532D01*
X114633400Y-51614640D01*
X114659023Y-51606946D01*
X114686065Y-51601451D01*
X114714527Y-51598154D01*
X114744409Y-51597055D01*
X114763975Y-51597548D01*
X114789101Y-51599743D01*
X114813129Y-51603693D01*
X114836057Y-51609398D01*
X114857886Y-51616859D01*
X114878616Y-51626075D01*
X114898247Y-51637047D01*
X114916779Y-51649774D01*
X114921240Y-51653230D01*
X114937841Y-51667404D01*
X114952229Y-51682082D01*
X114967100Y-51701137D01*
X114978514Y-51720979D01*
X114986468Y-51741609D01*
X114990964Y-51763025D01*
X114992071Y-51780725D01*
X114990302Y-51802713D01*
X114984995Y-51822880D01*
X114976151Y-51841227D01*
X114963769Y-51857753D01*
X114947850Y-51872459D01*
X114941757Y-51876957D01*
X114922706Y-51887697D01*
X114902675Y-51895929D01*
X114878384Y-51903840D01*
X114857371Y-51909563D01*
X114833962Y-51915106D01*
X114808158Y-51920468D01*
X114779958Y-51925650D01*
X114759827Y-51929005D01*
X114738631Y-51932279D01*
X114716371Y-51935474D01*
X114704841Y-51937041D01*
X114679566Y-51940514D01*
X114655094Y-51944523D01*
X114631424Y-51949066D01*
X114608556Y-51954145D01*
X114586491Y-51959760D01*
X114565228Y-51965909D01*
X114544767Y-51972594D01*
X114525109Y-51979814D01*
X114506253Y-51987569D01*
X114488200Y-51995859D01*
X114454500Y-52014046D01*
X114424010Y-52034373D01*
X114396729Y-52056842D01*
X114372658Y-52081451D01*
X114351796Y-52108201D01*
X114334144Y-52137093D01*
X114319701Y-52168125D01*
X114308468Y-52201298D01*
X114300444Y-52236612D01*
X114295630Y-52274067D01*
X114294426Y-52293598D01*
X114294025Y-52313663D01*
X114294441Y-52333664D01*
X114295689Y-52353246D01*
X114299121Y-52381831D01*
X114304424Y-52409471D01*
X114311600Y-52436167D01*
X114320647Y-52461919D01*
X114331567Y-52486725D01*
X114344358Y-52510588D01*
X114359021Y-52533506D01*
X114375556Y-52555479D01*
X114393963Y-52576508D01*
X114400515Y-52583307D01*
X114420932Y-52602600D01*
X114442252Y-52619995D01*
X114464472Y-52635493D01*
X114487595Y-52649093D01*
X114511619Y-52660795D01*
X114536545Y-52670599D01*
X114562372Y-52678506D01*
X114589101Y-52684515D01*
X114616731Y-52688627D01*
X114645263Y-52690841D01*
X114664785Y-52691263D01*
X114693826Y-52690267D01*
X114722694Y-52687278D01*
X114751391Y-52682298D01*
X114770426Y-52677871D01*
X114789386Y-52672559D01*
X114808269Y-52666361D01*
X114827075Y-52659278D01*
X114845806Y-52651310D01*
X114864460Y-52642456D01*
X114883037Y-52632717D01*
X114901539Y-52622092D01*
X114919964Y-52610582D01*
X114938313Y-52598187D01*
X114956585Y-52584906D01*
X114965693Y-52577934D01*
X115061924Y-52660000D01*
X115110284Y-52660000D01*
X115110284Y-52253579D01*
X115061924Y-52253579D01*
X115054379Y-52276660D01*
X115046520Y-52299009D01*
X115038347Y-52320624D01*
X115029860Y-52341507D01*
X115021059Y-52361657D01*
X115011944Y-52381074D01*
X115002516Y-52399759D01*
X114992773Y-52417711D01*
X114982717Y-52434930D01*
X114961662Y-52467170D01*
X114939352Y-52496479D01*
X114915787Y-52522857D01*
X114890965Y-52546304D01*
X114864889Y-52566821D01*
X114837556Y-52584406D01*
X114808968Y-52599061D01*
X114779125Y-52610785D01*
X114748026Y-52619577D01*
X114715671Y-52625439D01*
X114682061Y-52628370D01*
X114664785Y-52628736D01*
X114645082Y-52628140D01*
X114619345Y-52625487D01*
X114594218Y-52620713D01*
X114569702Y-52613817D01*
X114545797Y-52604799D01*
X114522503Y-52593659D01*
X114505432Y-52583912D01*
X114488705Y-52572971D01*
X114472322Y-52560837D01*
X114456870Y-52547812D01*
X114438632Y-52529819D01*
X114423096Y-52511107D01*
X114410262Y-52491678D01*
X114400130Y-52471532D01*
X114392699Y-52450669D01*
X114387971Y-52429087D01*
X114385945Y-52406789D01*
X114385860Y-52401102D01*
X114387124Y-52378066D01*
X114390917Y-52356890D01*
X114397237Y-52337575D01*
X114406087Y-52320120D01*
X114420043Y-52301630D01*
X114434454Y-52288269D01*
X114437640Y-52285819D01*
X114457949Y-52273822D01*
X114480363Y-52264533D01*
X114500769Y-52257747D01*
X114524258Y-52251115D01*
X114550829Y-52244638D01*
X114570256Y-52240406D01*
X114591053Y-52236242D01*
X114613220Y-52232147D01*
X114636757Y-52228121D01*
X114661664Y-52224163D01*
X114687941Y-52220275D01*
X114715588Y-52216454D01*
X114739360Y-52212596D01*
X114762378Y-52208286D01*
X114784640Y-52203524D01*
X114806149Y-52198312D01*
X114826902Y-52192648D01*
X114846901Y-52186533D01*
X114866145Y-52179966D01*
X114884635Y-52172949D01*
X114919349Y-52157560D01*
X114951046Y-52140365D01*
X114979723Y-52121366D01*
X115005382Y-52100561D01*
X115028022Y-52077952D01*
X115047644Y-52053537D01*
X115064247Y-52027317D01*
X115077831Y-51999292D01*
X115088396Y-51969462D01*
X115095943Y-51937827D01*
X115100471Y-51904387D01*
X115101980Y-51869141D01*
X115101070Y-51842892D01*
X115098339Y-51817449D01*
X115093788Y-51792814D01*
X115087417Y-51768986D01*
X115079226Y-51745965D01*
X115069213Y-51723752D01*
X115057381Y-51702345D01*
X115043728Y-51681746D01*
X115028255Y-51661954D01*
X115010962Y-51642968D01*
X114998421Y-51630760D01*
X114978509Y-51613562D01*
X114957789Y-51598056D01*
X114936262Y-51584242D01*
X114913928Y-51572119D01*
X114890787Y-51561688D01*
X114866839Y-51552948D01*
X114842084Y-51545900D01*
X114816521Y-51540543D01*
X114790152Y-51536878D01*
X114762975Y-51534904D01*
X114744409Y-51534528D01*
X114715267Y-51535529D01*
X114687010Y-51538530D01*
X114659637Y-51543532D01*
X114633148Y-51550534D01*
X114607544Y-51559537D01*
X114582825Y-51570541D01*
X114558990Y-51583545D01*
X114536039Y-51598551D01*
X114513973Y-51615557D01*
X114492791Y-51634563D01*
X114479161Y-51648346D01*
X114465392Y-51632378D01*
X114453193Y-51615852D01*
X114440855Y-51596942D01*
X114430167Y-51578836D01*
X114422985Y-51565792D01*
X114380487Y-51565792D01*
G37*
G36*
X113331220Y-51565792D02*
G01*
X113331220Y-51878422D01*
X113387395Y-51878422D01*
X113395982Y-51844351D01*
X113405988Y-51812477D01*
X113417414Y-51782801D01*
X113430260Y-51755324D01*
X113444525Y-51730045D01*
X113460210Y-51706964D01*
X113477315Y-51686081D01*
X113495839Y-51667397D01*
X113515783Y-51650910D01*
X113537147Y-51636622D01*
X113559930Y-51624532D01*
X113584133Y-51614640D01*
X113609756Y-51606946D01*
X113636798Y-51601451D01*
X113665260Y-51598154D01*
X113695141Y-51597055D01*
X113714708Y-51597548D01*
X113739834Y-51599743D01*
X113763861Y-51603693D01*
X113786790Y-51609398D01*
X113808619Y-51616859D01*
X113829349Y-51626075D01*
X113848980Y-51637047D01*
X113867512Y-51649774D01*
X113871973Y-51653230D01*
X113888574Y-51667404D01*
X113902962Y-51682082D01*
X113917833Y-51701137D01*
X113929246Y-51720979D01*
X113937201Y-51741609D01*
X113941697Y-51763025D01*
X113942804Y-51780725D01*
X113941035Y-51802713D01*
X113935728Y-51822880D01*
X113926884Y-51841227D01*
X113914502Y-51857753D01*
X113898582Y-51872459D01*
X113892490Y-51876957D01*
X113873439Y-51887697D01*
X113853407Y-51895929D01*
X113829117Y-51903840D01*
X113808104Y-51909563D01*
X113784695Y-51915106D01*
X113758891Y-51920468D01*
X113730691Y-51925650D01*
X113710560Y-51929005D01*
X113689364Y-51932279D01*
X113667104Y-51935474D01*
X113655574Y-51937041D01*
X113630299Y-51940514D01*
X113605827Y-51944523D01*
X113582157Y-51949066D01*
X113559289Y-51954145D01*
X113537224Y-51959760D01*
X113515961Y-51965909D01*
X113495500Y-51972594D01*
X113475842Y-51979814D01*
X113456986Y-51987569D01*
X113438933Y-51995859D01*
X113405233Y-52014046D01*
X113374742Y-52034373D01*
X113347462Y-52056842D01*
X113323390Y-52081451D01*
X113302529Y-52108201D01*
X113284876Y-52137093D01*
X113270434Y-52168125D01*
X113259200Y-52201298D01*
X113251177Y-52236612D01*
X113246362Y-52274067D01*
X113245159Y-52293598D01*
X113244758Y-52313663D01*
X113245174Y-52333664D01*
X113246421Y-52353246D01*
X113249853Y-52381831D01*
X113255157Y-52409471D01*
X113262333Y-52436167D01*
X113271380Y-52461919D01*
X113282299Y-52486725D01*
X113295091Y-52510588D01*
X113309754Y-52533506D01*
X113326289Y-52555479D01*
X113344696Y-52576508D01*
X113351247Y-52583307D01*
X113371665Y-52602600D01*
X113392984Y-52619995D01*
X113415205Y-52635493D01*
X113438328Y-52649093D01*
X113462352Y-52660795D01*
X113487277Y-52670599D01*
X113513105Y-52678506D01*
X113539833Y-52684515D01*
X113567464Y-52688627D01*
X113595996Y-52690841D01*
X113615518Y-52691263D01*
X113644558Y-52690267D01*
X113673427Y-52687278D01*
X113702123Y-52682298D01*
X113721159Y-52677871D01*
X113740118Y-52672559D01*
X113759001Y-52666361D01*
X113777808Y-52659278D01*
X113796538Y-52651310D01*
X113815192Y-52642456D01*
X113833770Y-52632717D01*
X113852272Y-52622092D01*
X113870697Y-52610582D01*
X113889045Y-52598187D01*
X113907318Y-52584906D01*
X113916425Y-52577934D01*
X114012657Y-52660000D01*
X114061017Y-52660000D01*
X114061017Y-52253579D01*
X114012657Y-52253579D01*
X114005112Y-52276660D01*
X113997253Y-52299009D01*
X113989080Y-52320624D01*
X113980593Y-52341507D01*
X113971792Y-52361657D01*
X113962677Y-52381074D01*
X113953248Y-52399759D01*
X113943506Y-52417711D01*
X113933449Y-52434930D01*
X113912395Y-52467170D01*
X113890085Y-52496479D01*
X113866519Y-52522857D01*
X113841698Y-52546304D01*
X113815621Y-52566821D01*
X113788289Y-52584406D01*
X113759701Y-52599061D01*
X113729858Y-52610785D01*
X113698759Y-52619577D01*
X113666404Y-52625439D01*
X113632794Y-52628370D01*
X113615518Y-52628736D01*
X113595815Y-52628140D01*
X113570078Y-52625487D01*
X113544951Y-52620713D01*
X113520435Y-52613817D01*
X113496530Y-52604799D01*
X113473235Y-52593659D01*
X113456165Y-52583912D01*
X113439438Y-52572971D01*
X113423055Y-52560837D01*
X113407603Y-52547812D01*
X113389365Y-52529819D01*
X113373829Y-52511107D01*
X113360995Y-52491678D01*
X113350862Y-52471532D01*
X113343432Y-52450669D01*
X113338704Y-52429087D01*
X113336677Y-52406789D01*
X113336593Y-52401102D01*
X113337857Y-52378066D01*
X113341649Y-52356890D01*
X113347970Y-52337575D01*
X113356819Y-52320120D01*
X113370775Y-52301630D01*
X113385187Y-52288269D01*
X113388372Y-52285819D01*
X113408682Y-52273822D01*
X113431095Y-52264533D01*
X113451501Y-52257747D01*
X113474990Y-52251115D01*
X113501562Y-52244638D01*
X113520989Y-52240406D01*
X113541785Y-52236242D01*
X113563952Y-52232147D01*
X113587489Y-52228121D01*
X113612396Y-52224163D01*
X113638674Y-52220275D01*
X113666321Y-52216454D01*
X113690093Y-52212596D01*
X113713110Y-52208286D01*
X113735373Y-52203524D01*
X113756881Y-52198312D01*
X113777635Y-52192648D01*
X113797634Y-52186533D01*
X113816878Y-52179966D01*
X113835367Y-52172949D01*
X113870082Y-52157560D01*
X113901778Y-52140365D01*
X113930456Y-52121366D01*
X113956115Y-52100561D01*
X113978755Y-52077952D01*
X113998376Y-52053537D01*
X114014979Y-52027317D01*
X114028563Y-51999292D01*
X114039129Y-51969462D01*
X114046676Y-51937827D01*
X114051204Y-51904387D01*
X114052713Y-51869141D01*
X114051803Y-51842892D01*
X114049072Y-51817449D01*
X114044521Y-51792814D01*
X114038150Y-51768986D01*
X114029958Y-51745965D01*
X114019946Y-51723752D01*
X114008114Y-51702345D01*
X113994461Y-51681746D01*
X113978988Y-51661954D01*
X113961694Y-51642968D01*
X113949154Y-51630760D01*
X113929241Y-51613562D01*
X113908522Y-51598056D01*
X113886995Y-51584242D01*
X113864661Y-51572119D01*
X113841520Y-51561688D01*
X113817572Y-51552948D01*
X113792817Y-51545900D01*
X113767254Y-51540543D01*
X113740884Y-51536878D01*
X113713708Y-51534904D01*
X113695141Y-51534528D01*
X113666000Y-51535529D01*
X113637742Y-51538530D01*
X113610370Y-51543532D01*
X113583881Y-51550534D01*
X113558277Y-51559537D01*
X113533558Y-51570541D01*
X113509722Y-51583545D01*
X113486772Y-51598551D01*
X113464705Y-51615557D01*
X113443524Y-51634563D01*
X113429894Y-51648346D01*
X113416124Y-51632378D01*
X113403926Y-51615852D01*
X113391588Y-51596942D01*
X113380900Y-51578836D01*
X113373718Y-51565792D01*
X113331220Y-51565792D01*
G37*
G36*
X112462663Y-51534813D02*
G01*
X112490177Y-51535666D01*
X112516901Y-51537087D01*
X112542834Y-51539077D01*
X112567978Y-51541636D01*
X112592331Y-51544764D01*
X112615895Y-51548460D01*
X112638669Y-51552725D01*
X112660653Y-51557558D01*
X112681846Y-51562960D01*
X112702250Y-51568930D01*
X112721864Y-51575470D01*
X112740688Y-51582578D01*
X112767443Y-51594305D01*
X112792420Y-51607313D01*
X112815379Y-51621260D01*
X112836080Y-51635809D01*
X112854523Y-51650959D01*
X112870707Y-51666710D01*
X112884633Y-51683062D01*
X112896301Y-51700014D01*
X112905711Y-51717568D01*
X112914744Y-51741909D01*
X112919762Y-51767318D01*
X112920892Y-51787076D01*
X112920380Y-51799211D01*
X112917024Y-51819494D01*
X112910536Y-51838561D01*
X112900916Y-51856413D01*
X112888163Y-51873049D01*
X112874745Y-51885500D01*
X112856659Y-51896770D01*
X112835956Y-51904533D01*
X112816127Y-51908397D01*
X112794374Y-51909685D01*
X112788609Y-51909575D01*
X112769004Y-51907444D01*
X112747687Y-51901689D01*
X112727529Y-51892393D01*
X112710843Y-51881353D01*
X112702142Y-51873751D01*
X112689706Y-51858538D01*
X112680824Y-51840893D01*
X112675494Y-51820817D01*
X112673718Y-51798311D01*
X112673881Y-51791252D01*
X112676328Y-51771108D01*
X112682491Y-51750538D01*
X112692280Y-51731877D01*
X112700401Y-51717772D01*
X112707779Y-51699374D01*
X112710843Y-51679120D01*
X112705404Y-51655478D01*
X112693223Y-51639450D01*
X112674080Y-51625986D01*
X112655155Y-51617571D01*
X112632315Y-51610599D01*
X112605559Y-51605069D01*
X112585546Y-51602184D01*
X112563793Y-51599940D01*
X112540300Y-51598337D01*
X112515067Y-51597375D01*
X112488093Y-51597055D01*
X112473019Y-51597274D01*
X112451810Y-51598426D01*
X112426149Y-51601498D01*
X112403480Y-51606326D01*
X112383803Y-51612909D01*
X112363415Y-51623606D01*
X112347701Y-51637047D01*
X112336663Y-51653230D01*
X112331599Y-51664758D01*
X112325623Y-51683508D01*
X112320532Y-51706119D01*
X112317295Y-51725612D01*
X112314556Y-51747278D01*
X112312315Y-51771116D01*
X112310572Y-51797126D01*
X112309327Y-51825309D01*
X112308773Y-51845305D01*
X112308441Y-51866266D01*
X112308330Y-51888192D01*
X112308330Y-52034738D01*
X112350736Y-52037126D01*
X112391795Y-52040140D01*
X112431508Y-52043778D01*
X112469874Y-52048041D01*
X112506895Y-52052930D01*
X112542569Y-52058443D01*
X112576897Y-52064581D01*
X112609879Y-52071344D01*
X112641514Y-52078732D01*
X112671804Y-52086744D01*
X112700747Y-52095382D01*
X112728344Y-52104645D01*
X112754595Y-52114532D01*
X112779500Y-52125045D01*
X112803058Y-52136182D01*
X112825270Y-52147944D01*
X112846137Y-52160332D01*
X112865656Y-52173344D01*
X112883830Y-52186981D01*
X112900658Y-52201243D01*
X112916139Y-52216130D01*
X112930274Y-52231641D01*
X112943063Y-52247778D01*
X112954505Y-52264540D01*
X112964602Y-52281926D01*
X112973352Y-52299938D01*
X112980756Y-52318574D01*
X112986814Y-52337836D01*
X112991526Y-52357722D01*
X112994891Y-52378233D01*
X112996911Y-52399369D01*
X112997584Y-52421130D01*
X112997252Y-52435218D01*
X112995509Y-52455827D01*
X112992272Y-52475810D01*
X112987540Y-52495166D01*
X112981315Y-52513895D01*
X112973596Y-52531997D01*
X112964382Y-52549472D01*
X112953674Y-52566320D01*
X112941473Y-52582542D01*
X112927777Y-52598137D01*
X112912587Y-52613105D01*
X112901678Y-52622569D01*
X112884478Y-52635621D01*
X112866273Y-52647299D01*
X112847063Y-52657603D01*
X112826849Y-52666533D01*
X112805629Y-52674089D01*
X112783406Y-52680272D01*
X112760177Y-52685080D01*
X112735944Y-52688515D01*
X112710707Y-52690576D01*
X112684464Y-52691263D01*
X112657750Y-52690404D01*
X112631464Y-52687828D01*
X112605605Y-52683535D01*
X112580173Y-52677524D01*
X112555168Y-52669796D01*
X112530591Y-52660351D01*
X112506442Y-52649188D01*
X112482720Y-52636308D01*
X112459425Y-52621711D01*
X112436558Y-52605396D01*
X112414118Y-52587364D01*
X112392106Y-52567615D01*
X112370521Y-52546148D01*
X112349363Y-52522964D01*
X112328633Y-52498063D01*
X112308330Y-52471444D01*
X112303089Y-52498063D01*
X112296645Y-52522964D01*
X112288999Y-52546148D01*
X112280151Y-52567615D01*
X112270101Y-52587364D01*
X112258848Y-52605396D01*
X112246394Y-52621711D01*
X112232737Y-52636308D01*
X112217879Y-52649188D01*
X112201818Y-52660351D01*
X112184555Y-52669796D01*
X112166090Y-52677524D01*
X112146422Y-52683535D01*
X112125553Y-52687828D01*
X112103481Y-52690404D01*
X112080208Y-52691263D01*
X112056112Y-52690530D01*
X112033283Y-52688332D01*
X112011720Y-52684668D01*
X111991425Y-52679539D01*
X111972397Y-52672944D01*
X111946231Y-52660305D01*
X111922915Y-52644368D01*
X111902450Y-52625134D01*
X111884836Y-52602602D01*
X111874677Y-52585750D01*
X111865785Y-52567431D01*
X111858160Y-52547648D01*
X111851802Y-52526399D01*
X111846712Y-52503684D01*
X111879440Y-52503684D01*
X111888254Y-52514858D01*
X111903040Y-52531039D01*
X111917945Y-52544167D01*
X111935988Y-52555891D01*
X111954204Y-52563218D01*
X111975672Y-52566210D01*
X111992768Y-52563969D01*
X112011475Y-52554009D01*
X112024520Y-52537878D01*
X112029833Y-52524197D01*
X112034046Y-52504402D01*
X112036717Y-52483235D01*
X112038305Y-52463246D01*
X112039404Y-52440539D01*
X112040014Y-52415115D01*
X112040152Y-52394263D01*
X112040152Y-52097264D01*
X112308330Y-52097264D01*
X112308330Y-52247718D01*
X112308674Y-52271371D01*
X112309704Y-52293727D01*
X112311422Y-52314785D01*
X112313826Y-52334546D01*
X112317797Y-52357422D01*
X112322842Y-52378271D01*
X112330312Y-52400614D01*
X112336487Y-52414528D01*
X112346116Y-52431899D01*
X112357868Y-52449247D01*
X112371743Y-52466570D01*
X112387740Y-52483870D01*
X112402066Y-52497692D01*
X112417751Y-52511500D01*
X112425935Y-52518125D01*
X112442681Y-52530093D01*
X112459931Y-52540351D01*
X112477684Y-52548900D01*
X112500584Y-52557181D01*
X112524272Y-52562791D01*
X112543788Y-52565355D01*
X112563809Y-52566210D01*
X112583155Y-52564958D01*
X112605457Y-52560149D01*
X112626764Y-52551735D01*
X112643758Y-52541967D01*
X112660061Y-52529695D01*
X112675672Y-52514919D01*
X112689744Y-52497724D01*
X112701432Y-52478502D01*
X112710734Y-52457253D01*
X112717651Y-52433976D01*
X112721467Y-52413894D01*
X112723757Y-52392515D01*
X112724520Y-52369839D01*
X112724204Y-52354078D01*
X112722541Y-52331323D01*
X112719452Y-52309633D01*
X112714939Y-52289008D01*
X112708999Y-52269448D01*
X112701635Y-52250952D01*
X112689598Y-52227947D01*
X112675028Y-52206836D01*
X112657923Y-52187617D01*
X112643432Y-52174445D01*
X112626708Y-52162312D01*
X112606944Y-52151192D01*
X112584141Y-52141086D01*
X112558298Y-52131992D01*
X112539380Y-52126493D01*
X112519112Y-52121444D01*
X112497493Y-52116845D01*
X112474522Y-52112697D01*
X112450201Y-52108999D01*
X112424529Y-52105751D01*
X112397506Y-52102954D01*
X112369132Y-52100607D01*
X112339407Y-52098710D01*
X112308330Y-52097264D01*
X112040152Y-52097264D01*
X112040152Y-51872072D01*
X112040171Y-51864676D01*
X112040465Y-51843122D01*
X112041110Y-51822521D01*
X112042518Y-51796536D01*
X112044553Y-51772245D01*
X112047212Y-51749649D01*
X112050498Y-51728747D01*
X112054410Y-51709539D01*
X112060180Y-51687913D01*
X112068025Y-51667982D01*
X112079042Y-51649101D01*
X112093231Y-51631270D01*
X112110593Y-51614487D01*
X112126766Y-51601817D01*
X112144970Y-51589819D01*
X112165204Y-51578492D01*
X112188003Y-51568188D01*
X112207135Y-51561362D01*
X112228011Y-51555308D01*
X112250630Y-51550027D01*
X112274991Y-51545519D01*
X112301096Y-51541784D01*
X112328944Y-51538822D01*
X112348478Y-51537276D01*
X112368786Y-51536074D01*
X112389869Y-51535215D01*
X112411727Y-51534700D01*
X112434360Y-51534528D01*
X112462663Y-51534813D01*
G37*
G36*
X111471066Y-52597473D02*
G01*
X111471066Y-50878004D01*
X111685023Y-50878004D01*
X111685023Y-50815478D01*
X111478882Y-50815478D01*
X111456108Y-50815355D01*
X111434071Y-50814989D01*
X111412770Y-50814378D01*
X111392206Y-50813524D01*
X111372379Y-50812424D01*
X111344018Y-50810318D01*
X111317315Y-50807662D01*
X111292269Y-50804456D01*
X111268881Y-50800701D01*
X111247149Y-50796396D01*
X111227075Y-50791542D01*
X111202887Y-50784214D01*
X111202887Y-51786587D01*
X111197514Y-51786587D01*
X111179867Y-51756064D01*
X111161366Y-51727511D01*
X111142010Y-51700927D01*
X111121799Y-51676311D01*
X111100733Y-51653666D01*
X111078812Y-51632989D01*
X111056036Y-51614281D01*
X111032406Y-51597543D01*
X111007921Y-51582774D01*
X110982580Y-51569974D01*
X110956385Y-51559144D01*
X110929335Y-51550282D01*
X110901431Y-51543390D01*
X110872671Y-51538467D01*
X110843057Y-51535513D01*
X110812587Y-51534528D01*
X110787636Y-51535360D01*
X110762853Y-51537856D01*
X110738238Y-51542016D01*
X110713791Y-51547840D01*
X110689512Y-51555327D01*
X110665400Y-51564479D01*
X110647427Y-51572434D01*
X110629548Y-51581326D01*
X110617681Y-51587773D01*
X110600510Y-51598165D01*
X110579470Y-51613289D01*
X110560553Y-51629863D01*
X110543757Y-51647887D01*
X110529084Y-51667362D01*
X110516532Y-51688286D01*
X110506102Y-51710661D01*
X110497794Y-51734487D01*
X110496049Y-51740669D01*
X110491247Y-51760314D01*
X110486918Y-51782063D01*
X110483061Y-51805915D01*
X110479677Y-51831871D01*
X110476764Y-51859931D01*
X110475085Y-51879806D01*
X110473616Y-51900617D01*
X110472357Y-51922362D01*
X110471307Y-51945042D01*
X110470467Y-51968657D01*
X110469838Y-51993207D01*
X110469418Y-52018693D01*
X110469208Y-52045113D01*
X110469182Y-52058674D01*
X110469182Y-52597473D01*
X110292350Y-52597473D01*
X110292350Y-52660000D01*
X110913215Y-52660000D01*
X110913215Y-52597473D01*
X110735895Y-52597473D01*
X110735895Y-52026434D01*
X110735945Y-51997893D01*
X110736093Y-51970403D01*
X110736342Y-51943962D01*
X110736689Y-51918570D01*
X110737135Y-51894228D01*
X110737681Y-51870935D01*
X110738326Y-51848692D01*
X110739070Y-51827498D01*
X110739914Y-51807353D01*
X110741365Y-51779105D01*
X110743039Y-51753217D01*
X110744937Y-51729691D01*
X110747058Y-51708527D01*
X110748596Y-51695729D01*
X110753190Y-51672602D01*
X110760869Y-51652559D01*
X110771631Y-51635599D01*
X110785476Y-51621723D01*
X110802405Y-51610931D01*
X110822418Y-51603222D01*
X110845514Y-51598596D01*
X110871694Y-51597055D01*
X110893803Y-51597956D01*
X110915251Y-51600661D01*
X110936038Y-51605169D01*
X110956164Y-51611480D01*
X110975628Y-51619595D01*
X110994432Y-51629512D01*
X111012574Y-51641233D01*
X111030055Y-51654757D01*
X111046875Y-51670084D01*
X111063034Y-51687215D01*
X111073439Y-51699637D01*
X111088228Y-51718818D01*
X111102004Y-51738076D01*
X111114766Y-51757412D01*
X111126516Y-51776825D01*
X111137252Y-51796315D01*
X111146975Y-51815883D01*
X111155685Y-51835528D01*
X111163381Y-51855250D01*
X111170064Y-51875049D01*
X111175734Y-51894926D01*
X111178952Y-51908220D01*
X111183229Y-51929544D01*
X111187086Y-51953580D01*
X111190522Y-51980331D01*
X111193537Y-52009795D01*
X111195314Y-52030944D01*
X111196903Y-52053300D01*
X111198306Y-52076862D01*
X111199521Y-52101630D01*
X111200550Y-52127604D01*
X111201391Y-52154783D01*
X111202046Y-52183169D01*
X111202513Y-52212760D01*
X111202794Y-52243558D01*
X111202887Y-52275561D01*
X111202887Y-52597473D01*
X111025567Y-52597473D01*
X111025567Y-52660000D01*
X111664506Y-52660000D01*
X111664506Y-52597473D01*
X111471066Y-52597473D01*
G37*
D11*
%TO.C,MT2*%
X149341100Y-56452000D02*
X151891100Y-56452000D01*
X149341100Y-59752000D02*
X149341100Y-56452000D01*
X149341100Y-66552000D02*
X149341100Y-69852000D01*
X149341100Y-69852000D02*
X151891100Y-69852000D01*
X159291100Y-56452000D02*
X161841100Y-56452000D01*
X159291100Y-69852000D02*
X161841100Y-69852000D01*
X161841100Y-56452000D02*
X161841100Y-59752000D01*
X161841100Y-69852000D02*
X161841100Y-66552000D01*
D12*
X151491100Y-70752000D02*
G75*
G03*
X151491100Y-70752000I-100000J0D01*
G01*
D11*
%TO.C,MT1*%
X107177100Y-56706000D02*
X109727100Y-56706000D01*
X107177100Y-60006000D02*
X107177100Y-56706000D01*
X107177100Y-66806000D02*
X107177100Y-70106000D01*
X107177100Y-70106000D02*
X109727100Y-70106000D01*
X117127100Y-56706000D02*
X119677100Y-56706000D01*
X117127100Y-70106000D02*
X119677100Y-70106000D01*
X119677100Y-56706000D02*
X119677100Y-60006000D01*
X119677100Y-70106000D02*
X119677100Y-66806000D01*
D12*
X109327100Y-71006000D02*
G75*
G03*
X109327100Y-71006000I-100000J0D01*
G01*
D13*
%TO.C,U1*%
X144705038Y-98665365D02*
X144705038Y-99065365D01*
X144705038Y-96065365D02*
X144705038Y-96465365D01*
X144705038Y-93565365D02*
X144705038Y-93965365D01*
X144705038Y-91065365D02*
X144705038Y-91465365D01*
X144705038Y-88465365D02*
X144705038Y-88865365D01*
X144705038Y-85965365D02*
X144705038Y-86365365D01*
X144705038Y-83365365D02*
X144705038Y-83765365D01*
X144705038Y-80865365D02*
X144705038Y-81265365D01*
X144705038Y-78265365D02*
X144705038Y-78665365D01*
X144705038Y-75765365D02*
X144705038Y-76165365D01*
X144705038Y-73265365D02*
X144705038Y-73665365D01*
X144705038Y-70665365D02*
X144705038Y-71065365D01*
X144705038Y-68165365D02*
X144705038Y-68565365D01*
X144705038Y-65565365D02*
X144705038Y-65965365D01*
X144705038Y-63065365D02*
X144705038Y-63465365D01*
X144705038Y-60565365D02*
X144705038Y-60965365D01*
X144705038Y-57965365D02*
X144705038Y-58365365D01*
X144705038Y-55465365D02*
X144705038Y-55865365D01*
X144705038Y-53132365D02*
X141698038Y-53132365D01*
X144705038Y-52865365D02*
X144705038Y-53265365D01*
X144705038Y-50465365D02*
X144705038Y-50765365D01*
X144705038Y-50465365D02*
X123705038Y-50465365D01*
X141698038Y-53132365D02*
X141698038Y-50465365D01*
X137905038Y-101465365D02*
X144705038Y-101465365D01*
X135705038Y-101465365D02*
X135305038Y-101465365D01*
X133105038Y-101465365D02*
X132705038Y-101465365D01*
X123705038Y-101465365D02*
X130505038Y-101465365D01*
X123705038Y-98665365D02*
X123705038Y-99065365D01*
X123705038Y-96065365D02*
X123705038Y-96465365D01*
X123705038Y-93565365D02*
X123705038Y-93965365D01*
X123705038Y-91065365D02*
X123705038Y-91465365D01*
X123705038Y-88465365D02*
X123705038Y-88865365D01*
X123705038Y-85965365D02*
X123705038Y-86365365D01*
X123705038Y-83365365D02*
X123705038Y-83765365D01*
X123705038Y-80865365D02*
X123705038Y-81265365D01*
X123705038Y-78265365D02*
X123705038Y-78665365D01*
X123705038Y-75765365D02*
X123705038Y-76165365D01*
X123705038Y-73265365D02*
X123705038Y-73665365D01*
X123705038Y-70665365D02*
X123705038Y-71065365D01*
X123705038Y-68165365D02*
X123705038Y-68565365D01*
X123705038Y-65565365D02*
X123705038Y-65965365D01*
X123705038Y-63065365D02*
X123705038Y-63465365D01*
X123705038Y-60565365D02*
X123705038Y-60965365D01*
X123705038Y-57965365D02*
X123705038Y-58365365D01*
X123705038Y-55465365D02*
X123705038Y-55865365D01*
X123705038Y-52865365D02*
X123705038Y-53265365D01*
X123705038Y-50465365D02*
X123705038Y-50765365D01*
%TD*%
M02*
