M48
; DRILL file {KiCad 7.0.2} date Tue Jun  6 14:02:08 2023
; FORMAT={-:-/ absolute / inch / decimal}
; #@! TF.CreationDate,2023-06-06T14:02:08-04:00
; #@! TF.GenerationSoftware,Kicad,Pcbnew,7.0.2
; #@! TF.FileFunction,Plated,1,2,PTH
FMAT,2
INCH
; #@! TA.AperFunction,Plated,PTH,ComponentDrill
T1C0.0402
; #@! TA.AperFunction,Plated,PTH,ComponentDrill
T2C0.0433
; #@! TA.AperFunction,Plated,PTH,ComponentDrill
T3C0.0600
; #@! TA.AperFunction,Plated,PTH,ComponentDrill
T4C0.0787
%
G90
G05
T1
X4.9337Y-2.0408
X4.9337Y-2.1408
X4.9337Y-2.2408
X4.9337Y-2.3408
X4.9337Y-2.4408
X4.9337Y-2.5408
X4.9337Y-2.6408
X4.9337Y-2.7408
X4.9337Y-2.8408
X4.9337Y-2.9408
X4.9337Y-3.0408
X4.9337Y-3.1408
X4.9337Y-3.2408
X4.9337Y-3.3408
X4.9337Y-3.4408
X4.9337Y-3.5408
X4.9337Y-3.6408
X4.9337Y-3.7408
X4.9337Y-3.8408
X4.9337Y-3.9408
X5.1837Y-3.9317
X5.2837Y-3.9317
X5.3837Y-3.9317
X5.6337Y-2.0408
X5.6337Y-2.1408
X5.6337Y-2.2408
X5.6337Y-2.3408
X5.6337Y-2.4408
X5.6337Y-2.5408
X5.6337Y-2.6408
X5.6337Y-2.7408
X5.6337Y-2.8408
X5.6337Y-2.9408
X5.6337Y-3.0408
X5.6337Y-3.1408
X5.6337Y-3.2408
X5.6337Y-3.3408
X5.6337Y-3.4408
X5.6337Y-3.5408
X5.6337Y-3.6408
X5.6337Y-3.7408
X5.6337Y-3.8408
X5.6337Y-3.9408
T2
X4.3672Y-2.201
X4.3672Y-2.7719
X4.4656Y-2.201
X4.5641Y-2.201
X4.5641Y-2.7719
X6.0272Y-2.191
X6.0272Y-2.7619
X6.1256Y-2.191
X6.2241Y-2.191
X6.2241Y-2.7619
T3
X4.4459Y-3.584
X4.4463Y-4.3345
X4.4463Y-5.0861
X4.6959Y-3.484
X4.6963Y-4.2345
X4.6963Y-4.9861
X5.1963Y-3.5823
X5.1963Y-5.0844
X5.1974Y-4.3327
X5.4463Y-3.4823
X5.4463Y-4.9844
X5.4474Y-4.2327
X5.9462Y-3.5845
X5.9462Y-4.3345
X5.9463Y-5.0843
X6.1962Y-3.4845
X6.1962Y-4.2345
X6.1963Y-4.9843
T4
G00X4.2412Y-2.4806
M15
G01X4.2412Y-2.512
M16
G05
G00X4.69Y-2.4806
M15
G01X4.69Y-2.512
M16
G05
G00X5.9012Y-2.4706
M15
G01X5.9012Y-2.502
M16
G05
G00X6.35Y-2.4706
M15
G01X6.35Y-2.502
M16
G05
T0
M30
